<svg width="14" height="14" viewBox="0 0 14 14" fill="none" xmlns="http://www.w3.org/2000/svg">
<path d="M1 6.25H5.5C5.69891 6.25 5.88968 6.17098 6.03033 6.03033C6.17098 5.88968 6.25 5.69891 6.25 5.5V1C6.25 0.801088 6.17098 0.610322 6.03033 0.46967C5.88968 0.329018 5.69891 0.25 5.5 0.25H1C0.801088 0.25 0.610322 0.329018 0.46967 0.46967C0.329018 0.610322 0.25 0.801088 0.25 1V5.5C0.25 5.69891 0.329018 5.88968 0.46967 6.03033C0.610322 6.17098 0.801088 6.25 1 6.25ZM8.5 6.25H13C13.1989 6.25 13.3897 6.17098 13.5303 6.03033C13.671 5.88968 13.75 5.69891 13.75 5.5V1C13.75 0.801088 13.671 0.610322 13.5303 0.46967C13.3897 0.329018 13.1989 0.25 13 0.25H8.5C8.30109 0.25 8.11032 0.329018 7.96967 0.46967C7.82902 0.610322 7.75 0.801088 7.75 1V5.5C7.75 5.69891 7.82902 5.88968 7.96967 6.03033C8.11032 6.17098 8.30109 6.25 8.5 6.25ZM1 13.75H5.5C5.69891 13.75 5.88968 13.671 6.03033 13.5303C6.17098 13.3897 6.25 13.1989 6.25 13V8.5C6.25 8.30109 6.17098 8.11032 6.03033 7.96967C5.88968 7.82902 5.69891 7.75 5.5 7.75H1C0.801088 7.75 0.610322 7.82902 0.46967 7.96967C0.329018 8.11032 0.25 8.30109 0.25 8.5V13C0.25 13.1989 0.329018 13.3897 0.46967 13.5303C0.610322 13.671 0.801088 13.75 1 13.75ZM10.75 13.75C12.4045 13.75 13.75 12.4045 13.75 10.75C13.75 9.0955 12.4045 7.75 10.75 7.75C9.0955 7.75 7.75 9.0955 7.75 10.75C7.75 12.4045 9.0955 13.75 10.75 13.75Z" fill="#161546"/>
</svg>

