<svg width="25" height="25" viewBox="0 0 25 25" fill="none" xmlns="http://www.w3.org/2000/svg">
<g clip-path="url(#clip0_219_7502)">
<path d="M12.5 0C10.0277 0 7.61099 0.733116 5.55538 2.10663C3.49977 3.48015 1.89759 5.43238 0.951498 7.71646C0.00540264 10.0005 -0.242121 12.5139 0.240194 14.9386C0.72251 17.3634 1.91302 19.5907 3.66117 21.3388C5.40933 23.087 7.6366 24.2775 10.0614 24.7598C12.4861 25.2421 14.9995 24.9946 17.2835 24.0485C19.5676 23.1024 21.5198 21.5002 22.8933 19.4446C24.2669 17.389 25 14.9723 25 12.5C24.9969 9.18574 23.6789 6.00812 21.3354 3.66458C18.9919 1.32105 15.8143 0.00308899 12.5 0V0ZM12.5 22.3683C10.5483 22.368 8.64052 21.789 7.0179 20.7044C5.39528 19.6199 4.13069 18.0785 3.38403 16.2753C2.63738 14.4721 2.4422 12.4879 2.82316 10.5738C3.20412 8.65961 4.14411 6.90139 5.52429 5.52145C6.90447 4.1415 8.66284 3.2018 10.5771 2.82117C12.4913 2.44053 14.4754 2.63605 16.2785 3.38301C18.0816 4.12997 19.6227 5.39482 20.707 7.01762C21.7913 8.64043 22.37 10.5483 22.37 12.5C22.3691 15.1173 21.3289 17.6271 19.4781 19.4776C17.6272 21.3281 15.1173 22.3679 12.5 22.3683V22.3683Z" fill="#D9713D"/>
<path d="M17 11.1849H13.8167V6.84161C13.8045 6.50073 13.6606 6.17786 13.4151 5.941C13.1697 5.70414 12.8419 5.57178 12.5008 5.57178C12.1597 5.57178 11.832 5.70414 11.5865 5.941C11.3411 6.17786 11.1971 6.50073 11.185 6.84161V12.4999C11.1832 12.6732 11.216 12.8451 11.2814 13.0055C11.3469 13.166 11.4437 13.3117 11.5661 13.4343C11.6886 13.5569 11.8342 13.6539 11.9946 13.7195C12.1549 13.7852 12.3268 13.8182 12.5 13.8166H17C17.1768 13.8229 17.353 13.7935 17.5181 13.7302C17.6832 13.6669 17.8339 13.571 17.9612 13.4482C18.0884 13.3254 18.1896 13.1782 18.2588 13.0154C18.3279 12.8527 18.3635 12.6776 18.3635 12.5008C18.3635 12.3239 18.3279 12.1489 18.2588 11.9861C18.1896 11.8233 18.0884 11.6761 17.9612 11.5533C17.8339 11.4305 17.6832 11.3346 17.5181 11.2713C17.353 11.208 17.1768 11.1787 17 11.1849V11.1849Z" fill="#D9713D"/>
</g>
<defs>
<clipPath id="clip0_219_7502">
<rect width="25" height="25" fill="white"/>
</clipPath>
</defs>
</svg>
