<svg width="14" height="25" viewBox="0 0 14 25" fill="none" xmlns="http://www.w3.org/2000/svg">
<path d="M3.8666 16.0566C3.34263 16.7568 3.088 17.6221 3.1492 18.4945C3.21039 19.3669 3.58334 20.1881 4.19994 20.8083C5.4516 22.06 7.54327 22.16 8.94994 21.1416L3.8666 16.0566Z" fill="#9942E7"/>
<path d="M6.77165 14.5834C5.98856 14.587 5.22797 14.8456 4.60498 15.3201L9.68831 20.4034C10.0946 19.8632 10.3422 19.2205 10.4034 18.5473C10.4646 17.8742 10.3369 17.1973 10.0346 16.5928C9.73231 15.9882 9.26743 15.4799 8.69222 15.1249C8.11701 14.77 7.45423 14.5824 6.77832 14.5834H6.77165Z" fill="#9942E7"/>
<path d="M7.81335 0H5.73002C4.21087 0.0017644 2.75446 0.606031 1.68025 1.68023C0.606053 2.75443 0.00180192 4.21085 3.75176e-05 5.73V6.77167C0.0132851 7.17724 0.183719 7.56176 0.475298 7.84397C0.766877 8.12618 1.15675 8.28397 1.56254 8.28397C1.96832 8.28397 2.3582 8.12618 2.64978 7.84397C2.94136 7.56176 3.11179 7.17724 3.12504 6.77167V5.73C3.12592 5.03938 3.40065 4.3773 3.88899 3.88896C4.37734 3.40062 5.0394 3.12588 5.73002 3.125H7.81335C8.50382 3.12588 9.16573 3.40067 9.65381 3.88906C10.1419 4.37745 10.4163 5.03954 10.4167 5.73C10.4194 6.54844 10.1756 7.34873 9.71684 8.02655C9.25812 8.70437 8.60585 9.22828 7.84505 9.53L3.22835 11.3767C2.27292 11.7553 1.45382 12.4132 0.877927 13.2644C0.30203 14.1156 -0.00389902 15.1206 3.75176e-05 16.1483V22.4C0.00136027 23.0903 0.27627 23.752 0.764564 24.24C1.25286 24.7279 1.91469 25.0025 2.60502 25.0033H10.9384C11.6285 25.0025 12.2902 24.7279 12.7782 24.2399C13.2663 23.7518 13.5408 23.0902 13.5417 22.4V5.73334C13.5404 4.21434 12.9365 2.75791 11.8625 1.68366C10.7886 0.609416 9.33235 0.00510177 7.81335 0.00333659V0ZM10.0867 21.545C9.43105 22.2007 8.59566 22.6473 7.6862 22.8282C6.77674 23.0091 5.83404 22.9163 4.97733 22.5615C4.12063 22.2067 3.38839 21.6057 2.87321 20.8347C2.35803 20.0637 2.08305 19.1573 2.08305 18.23C2.08305 17.3027 2.35803 16.3963 2.87321 15.6253C3.38839 14.8543 4.12063 14.2533 4.97733 13.8985C5.83404 13.5437 6.77674 13.4508 7.6862 13.6318C8.59566 13.8127 9.43105 14.2593 10.0867 14.915C10.5246 15.3489 10.8722 15.8652 11.1094 16.4342C11.3466 17.0032 11.4688 17.6135 11.4688 18.23C11.4688 18.8465 11.3466 19.4568 11.1094 20.0258C10.8722 20.5948 10.5246 21.1111 10.0867 21.545Z" fill="#9942E7"/>
</svg>
