<svg width="25" height="25" viewBox="0 0 25 25" fill="none" xmlns="http://www.w3.org/2000/svg">
<path d="M12.5001 0C11.7901 0 10.4335 2.05334 9.75012 2.23667C9.06679 2.42 6.86346 1.32 6.25012 1.675C5.63679 2.03 5.48844 4.485 4.98678 4.98667C4.48511 5.48834 2.02842 5.63667 1.67509 6.25C1.32176 6.86333 2.42011 9.065 2.23678 9.75C2.05344 10.435 0.00012207 11.7917 0.00012207 12.5C0.00012207 13.2083 2.05344 14.565 2.23678 15.25C2.42011 15.935 1.32009 18.1367 1.67509 18.75C2.03009 19.3633 4.48511 19.5117 4.98678 20.0133C5.48844 20.515 5.63512 22.9717 6.25012 23.325C6.86512 23.6783 9.06512 22.58 9.75012 22.7633C10.4351 22.9467 11.7901 25 12.5001 25C13.2101 25 14.5651 22.9467 15.2501 22.7633C15.9351 22.58 18.1351 23.68 18.7501 23.325C19.3651 22.97 19.5118 20.515 20.0118 20.0133C20.5118 19.5117 22.9701 19.365 23.3251 18.75C23.6801 18.135 22.5784 15.935 22.7634 15.25C22.9484 14.565 25.0001 13.2083 25.0001 12.5C25.0001 11.7917 22.9468 10.435 22.7634 9.75C22.5801 9.065 23.6784 6.865 23.3251 6.25C22.9718 5.635 20.5134 5.48167 20.0118 4.98167C19.5101 4.48167 19.3635 2.025 18.7501 1.67C18.1368 1.315 15.9351 2.415 15.2501 2.23167C14.5651 2.04834 13.2085 0 12.5001 0ZM12.5001 4.16667C14.428 4.16664 16.2963 4.83508 17.7866 6.05808C19.277 7.28109 20.2971 8.98301 20.6733 10.8739C21.0495 12.7647 20.7585 14.7275 19.8498 16.4278C18.9411 18.1282 17.471 19.4608 15.6899 20.1987C13.9088 20.9367 11.9269 21.0342 10.082 20.4747C8.23704 19.9153 6.64314 18.7334 5.57186 17.1306C4.50058 15.5277 4.0182 13.603 4.20691 11.6843C4.39562 9.76565 5.24374 7.97178 6.60677 6.60834C7.38061 5.83426 8.29936 5.22022 9.31055 4.80127C10.3217 4.38232 11.4056 4.16668 12.5001 4.16667ZM12.5001 5.555C10.8933 5.55461 9.33609 6.11136 8.09379 7.1304C6.85149 8.14943 6.00096 9.56771 5.68713 11.1435C5.37331 12.7194 5.6156 14.3553 6.37272 15.7725C7.12984 17.1897 8.35497 18.3006 9.83932 18.9158C11.3237 19.531 12.9754 19.6125 14.5131 19.1464C16.0508 18.6802 17.3793 17.6954 18.2722 16.3595C19.1652 15.0237 19.5673 13.4196 19.4101 11.8205C19.2529 10.2215 18.5461 8.72637 17.4101 7.59C16.1079 6.28761 14.3418 5.55564 12.5001 5.555ZM15.2768 8.33333L16.6668 9.72167L11.1101 16.6667L8.33346 13.8883L9.72176 12.5L11.1101 13.8883L15.2768 8.33333Z" fill="#83B71D"/>
</svg>
