<svg width="25" height="25" viewBox="0 0 25 25" fill="none" xmlns="http://www.w3.org/2000/svg">
<g clip-path="url(#clip0_219_7526)">
<path d="M10.6867 0C7.87534 0.0351087 5.19099 1.17656 3.21533 3.17704C1.23968 5.17752 0.131836 7.8759 0.131836 10.6875C0.131836 13.4991 1.23968 16.1975 3.21533 18.198C5.19099 20.1984 7.87534 21.3399 10.6867 21.375C12.6184 21.3752 14.5134 20.8473 16.1667 19.8483L16.575 19.6017L21.4834 24.51C21.8021 24.8258 22.2331 25.002 22.6817 25C22.9039 25.002 23.1242 24.9598 23.3299 24.8759C23.5356 24.792 23.7226 24.6681 23.88 24.5113C24.0374 24.3545 24.162 24.1681 24.2468 23.9627C24.3315 23.7573 24.3745 23.5372 24.3734 23.315C24.3656 22.8659 24.1868 22.4367 23.8734 22.115L19.1034 17.29L19.5384 16.6633C20.6228 15.056 21.2494 13.1837 21.3508 11.2474C21.4523 9.31104 21.0249 7.38359 20.1143 5.67166C19.2038 3.95974 17.8446 2.52789 16.1823 1.52963C14.52 0.531362 12.6174 0.00432236 10.6784 0.00500488L10.6867 0ZM10.6867 18.485C9.14429 18.4853 7.63641 18.0282 6.35376 17.1716C5.07111 16.3149 4.07129 15.097 3.4808 13.6721C2.8903 12.2472 2.73567 10.6791 3.03638 9.16631C3.33709 7.65347 4.07966 6.26379 5.17021 5.173C6.26076 4.08222 7.65027 3.33933 9.16305 3.0383C10.6758 2.73726 12.2439 2.8916 13.6689 3.48179C15.094 4.07198 16.3121 5.07151 17.169 6.35397C18.026 7.63644 18.4834 9.14423 18.4834 10.6867C18.483 12.7542 17.6613 14.7369 16.1992 16.1987C14.7371 17.6605 12.7542 18.4817 10.6867 18.4817V18.485Z" fill="#235ABA"/>
<path d="M13.8217 7.52502L9.62329 11.7234L7.60665 9.73336L6.16162 11.1784L9.62329 14.6134L15.2666 8.97002L13.8217 7.52502Z" fill="#235ABA"/>
</g>
<defs>
<clipPath id="clip0_219_7526">
<rect width="24.3733" height="25" fill="white"/>
</clipPath>
</defs>
</svg>
