<svg width="25" height="25" viewBox="0 0 25 25" fill="none" xmlns="http://www.w3.org/2000/svg">
<g clip-path="url(#clip0_219_7498)">
<path fill-rule="evenodd" clip-rule="evenodd" d="M12.5 0C14.9723 0 17.389 0.733116 19.4446 2.10663C21.5003 3.48015 23.1024 5.43238 24.0485 7.71646C24.9946 10.0005 25.2421 12.5139 24.7598 14.9386C24.2775 17.3634 23.087 19.5907 21.3389 21.3388C19.5907 23.087 17.3634 24.2775 14.9386 24.7598C12.5139 25.2421 10.0005 24.9946 7.71647 24.0485C5.4324 23.1024 3.48017 21.5002 2.10665 19.4446C0.733131 17.389 0 14.9723 0 12.5C0 9.18479 1.31697 6.00537 3.66117 3.66117C6.00538 1.31696 9.18479 0 12.5 0ZM12.5 3.20667C14.3442 3.20239 16.1481 3.7456 17.6833 4.7675C19.2185 5.78939 20.4157 7.24398 21.1234 8.94696C21.8312 10.6499 22.0174 12.5247 21.6587 14.3336C21.3 16.1426 20.4124 17.8043 19.1084 19.1083C17.8043 20.4124 16.1426 21.3 14.3336 21.6587C12.5247 22.0174 10.6499 21.8311 8.94696 21.1234C7.24399 20.4157 5.78939 19.2184 4.7675 17.6833C3.7456 16.1481 3.2024 14.3442 3.20669 12.5C3.21328 10.0373 4.1945 7.67732 5.93591 5.93591C7.67732 4.1945 10.0373 3.21327 12.5 3.20667Z" fill="#932B77"/>
<path fill-rule="evenodd" clip-rule="evenodd" d="M8.34668 8.38831H11.1583V16.6483H8.34668V8.38831Z" fill="#932B77"/>
<path fill-rule="evenodd" clip-rule="evenodd" d="M13.8567 8.38831H16.6667V16.6483H13.8567V8.38831Z" fill="#932B77"/>
</g>
<defs>
<clipPath id="clip0_219_7498">
<rect width="25" height="25" fill="white"/>
</clipPath>
</defs>
</svg>
