<svg width="25" height="25" viewBox="0 0 25 25" fill="none" xmlns="http://www.w3.org/2000/svg">
<g clip-path="url(#clip0_219_7494)">
<path d="M16.8359 6.70499V0H0V16.8359H6.57412C6.7653 18.5498 7.43525 20.1752 8.50725 21.5261C9.57925 22.8769 11.01 23.8986 12.6356 24.4742C14.2613 25.0498 16.0162 25.1559 17.6993 24.7805C19.3825 24.4051 20.926 23.5633 22.153 22.3515C23.38 21.1398 24.241 19.6069 24.6374 17.9286C25.0338 16.2502 24.9496 14.4941 24.3944 12.8614C23.8391 11.2287 22.8354 9.78534 21.498 8.69655C20.1607 7.60776 18.5437 6.91757 16.8323 6.70499H16.8359ZM6.60419 14.5631H2.27273V2.27273H14.5632V6.70499C12.5564 6.95559 10.6884 7.86167 9.24928 9.28256C7.81015 10.7035 6.88035 12.5597 6.60419 14.5631ZM20.3555 16.9438H15.7004C15.5504 16.9439 15.4027 16.9069 15.2706 16.8359C15.1242 16.7577 15.0018 16.6412 14.9164 16.4988C14.8311 16.3565 14.786 16.1936 14.786 16.0276V11.0753C14.786 10.9553 14.8096 10.8364 14.8556 10.7254C14.9015 10.6145 14.9689 10.5137 15.0538 10.4288C15.1387 10.3439 15.2395 10.2765 15.3505 10.2306C15.4614 10.1846 15.5803 10.1609 15.7004 10.1609C15.8205 10.1609 15.9394 10.1846 16.0503 10.2306C16.1613 10.2765 16.2621 10.3439 16.347 10.4288C16.4319 10.5137 16.4992 10.6145 16.5452 10.7254C16.5911 10.8364 16.6148 10.9553 16.6148 11.0753V15.1061H20.3555C20.5913 15.1165 20.814 15.2175 20.9772 15.388C21.1403 15.5585 21.2314 15.7854 21.2314 16.0214C21.2314 16.2574 21.1403 16.4843 20.9772 16.6548C20.814 16.8254 20.5913 16.9263 20.3555 16.9367V16.9438Z" fill="#D227AF"/>
</g>
<defs>
<clipPath id="clip0_219_7494">
<rect width="24.8815" height="25" fill="white"/>
</clipPath>
</defs>
</svg>
