<svg width="24" height="25" viewBox="0 0 24 25" fill="none" xmlns="http://www.w3.org/2000/svg">
<g clip-path="url(#clip0_219_7518)">
<path d="M13.8649 13.4017C13.8125 13.3468 13.7496 13.3032 13.6798 13.2734C13.6101 13.2436 13.535 13.2283 13.4591 13.2283C13.3833 13.2283 13.3082 13.2436 13.2385 13.2734C13.1687 13.3032 13.1057 13.3468 13.0533 13.4017L12.3283 14.1283C12.2735 14.1808 12.2299 14.2437 12.2001 14.3135C12.1703 14.3832 12.1549 14.4583 12.1549 14.5341C12.1549 14.61 12.1703 14.6851 12.2001 14.7548C12.2299 14.8246 12.2735 14.8875 12.3283 14.94L14.2133 16.855L12.3283 18.74C12.2735 18.7924 12.2299 18.8554 12.2001 18.9252C12.1703 18.9949 12.1549 19.07 12.1549 19.1458C12.1549 19.2217 12.1703 19.2967 12.2001 19.3665C12.2299 19.4362 12.2735 19.4992 12.3283 19.5516L13.0533 20.2783C13.1057 20.3331 13.1687 20.3767 13.2385 20.4065C13.3082 20.4363 13.3833 20.4517 13.4591 20.4517C13.535 20.4517 13.6101 20.4363 13.6798 20.4065C13.7496 20.3767 13.8125 20.3331 13.8649 20.2783L15.7583 18.3633L17.6433 20.2783C17.6957 20.3331 17.7587 20.3767 17.8285 20.4065C17.8982 20.4363 17.9733 20.4517 18.0492 20.4517C18.125 20.4517 18.2 20.4363 18.2698 20.4065C18.3395 20.3767 18.4025 20.3331 18.455 20.2783L19.18 19.5516C19.2352 19.4995 19.2792 19.4366 19.3093 19.3668C19.3394 19.297 19.3549 19.2218 19.3549 19.1458C19.3549 19.0698 19.3394 18.9946 19.3093 18.9249C19.2792 18.8551 19.2352 18.7922 19.18 18.74L17.325 16.855L19.21 14.9683C19.2648 14.9159 19.3084 14.8529 19.3382 14.7831C19.368 14.7134 19.3833 14.6383 19.3833 14.5625C19.3833 14.4866 19.368 14.4116 19.3382 14.3418C19.3084 14.2721 19.2648 14.2091 19.21 14.1566L18.485 13.4317C18.4324 13.3768 18.3692 13.3332 18.2994 13.3033C18.2295 13.2735 18.1543 13.2581 18.0783 13.2581C18.0023 13.2581 17.9271 13.2735 17.8572 13.3033C17.7873 13.3332 17.7242 13.3768 17.6716 13.4317L15.7799 15.315L13.8649 13.4017Z" fill="#B59217"/>
<path d="M4.92497 10.8784H8.11495C8.26878 10.8784 8.41633 10.8173 8.52511 10.7085C8.63388 10.5997 8.69499 10.4522 8.69499 10.2984V9.28337C8.69499 9.12955 8.63388 8.98202 8.52511 8.87325C8.41633 8.76448 8.26878 8.70337 8.11495 8.70337H4.92497C4.77114 8.70337 4.62362 8.76448 4.51485 8.87325C4.40608 8.98202 4.34497 9.12955 4.34497 9.28337V10.2984C4.34497 10.4522 4.40608 10.5997 4.51485 10.7085C4.62362 10.8173 4.77114 10.8784 4.92497 10.8784Z" fill="#B59217"/>
<path d="M4.92497 6.52668H14.6416C14.7955 6.52668 14.943 6.46558 15.0518 6.35681C15.1605 6.24804 15.2216 6.10051 15.2216 5.94669V4.93169C15.2212 4.778 15.1599 4.63073 15.0513 4.52205C14.9426 4.41337 14.7953 4.35212 14.6416 4.35168H4.92497C4.77128 4.35212 4.62402 4.41337 4.51534 4.52205C4.40666 4.63073 4.34541 4.778 4.34497 4.93169V5.94669C4.34497 6.10051 4.40608 6.24804 4.51485 6.35681C4.62362 6.46558 4.77114 6.52668 4.92497 6.52668Z" fill="#B59217"/>
<path d="M1.56671 21.6482L3.24835 20.8149L4.9317 21.6482C5.08595 21.7201 5.25406 21.7573 5.42421 21.7573C5.59436 21.7573 5.76243 21.7201 5.91668 21.6482L7.60003 20.8149L9.05002 21.5399C10.2954 23.3135 12.1944 24.5198 14.3292 24.8933C16.464 25.2668 18.6597 24.777 20.4334 23.5316C22.207 22.2861 23.4132 20.3872 23.7868 18.2524C24.1603 16.1176 23.6704 13.9219 22.425 12.1482C21.6863 11.0869 20.7008 10.221 19.5534 9.62489V2.1749C19.5545 1.88896 19.4989 1.60564 19.39 1.34126C19.2811 1.07688 19.1209 0.836669 18.9188 0.634482C18.7166 0.432294 18.4764 0.272128 18.212 0.163214C17.9476 0.0543002 17.6643 -0.00120786 17.3784 -0.000105982H2.17502C1.88909 -0.00120786 1.60579 0.0543002 1.34141 0.163214C1.07703 0.272128 0.836806 0.432294 0.634619 0.634482C0.432432 0.836669 0.27226 1.07688 0.163346 1.34126C0.0544324 1.60564 -0.00108579 1.88896 1.60856e-05 2.1749V20.6832C-0.00136079 20.971 0.110389 21.2477 0.311173 21.4538C0.511957 21.6599 0.785681 21.7788 1.07334 21.7849C1.24765 21.7685 1.41729 21.7193 1.57334 21.6399L1.56671 21.6482ZM21.7584 16.8549C21.7613 18.0402 21.4126 19.1998 20.7564 20.1869C20.1002 21.174 19.166 21.9443 18.0719 22.4004C16.9778 22.8564 15.7731 22.9777 14.61 22.7489C13.447 22.52 12.378 21.9514 11.5382 21.1149C10.6984 20.2784 10.1257 19.2116 9.89231 18.0494C9.65896 16.8873 9.77554 15.6821 10.2273 14.5862C10.6791 13.4904 11.4457 12.5531 12.4303 11.8931C13.4148 11.2331 14.573 10.8799 15.7584 10.8782C16.5455 10.8741 17.3257 11.0256 18.054 11.3242C18.7823 11.6228 19.4444 12.0625 20.002 12.618C20.5597 13.1735 21.002 13.8339 21.3034 14.561C21.6049 15.2882 21.7595 16.0677 21.7584 16.8549ZM2.17502 2.17657H17.405V8.87656C15.6762 8.50971 13.8747 8.7197 12.2766 9.47435C10.6785 10.229 9.37181 11.4867 8.5567 13.0549H4.92502C4.84886 13.0549 4.77343 13.0699 4.70306 13.099C4.63269 13.1282 4.56877 13.1709 4.51491 13.2248C4.46105 13.2786 4.41832 13.3426 4.38918 13.4129C4.36003 13.4833 4.34503 13.5587 4.34503 13.6349V14.6482C4.34547 14.8019 4.40672 14.9492 4.5154 15.0579C4.62407 15.1665 4.77133 15.2278 4.92502 15.2282H7.7667C7.53501 16.3087 7.53501 17.4261 7.7667 18.5066C7.55001 18.4737 7.32842 18.5038 7.12835 18.5932L5.44667 19.4349L3.73504 18.5932C3.58057 18.5211 3.41214 18.4838 3.24167 18.4838C3.07121 18.4838 2.90282 18.5211 2.74835 18.5932L2.14003 18.8832L2.17502 2.17657Z" fill="#B59217"/>
</g>
<defs>
<clipPath id="clip0_219_7518">
<rect width="23.905" height="25" fill="white"/>
</clipPath>
</defs>
</svg>
