<svg width="23" height="25" viewBox="0 0 23 25" fill="none" xmlns="http://www.w3.org/2000/svg">
<g clip-path="url(#clip0_219_7496)">
<path d="M17.7083 14.5833C16.5038 14.5837 15.3367 15.0017 14.4058 15.7661C13.4749 16.5305 12.8378 17.594 12.6031 18.7754C12.3684 19.9569 12.5506 21.1831 13.1186 22.2453C13.6866 23.3075 14.6054 24.1399 15.7183 24.6006C16.8312 25.0614 18.0694 25.1221 19.222 24.7723C20.3746 24.4225 21.3703 23.6839 22.0394 22.6823C22.7085 21.6808 23.0097 20.4782 22.8916 19.2795C22.7735 18.0807 22.2434 16.9601 21.3917 16.1083C20.9079 15.6247 20.3337 15.2411 19.7017 14.9795C19.0697 14.7178 18.3924 14.5832 17.7083 14.5833ZM20.4167 20.5217C20.5261 20.6035 20.6184 20.7062 20.6882 20.8237C20.758 20.9412 20.8039 21.0714 20.8233 21.2067C20.8528 21.4108 20.821 21.619 20.732 21.8051C20.643 21.9911 20.5008 22.1465 20.3234 22.2517C20.146 22.3568 19.9413 22.4069 19.7354 22.3956C19.5295 22.3844 19.3316 22.3122 19.1667 22.1883L17.7083 21.0933L16.25 22.1883C16.029 22.3541 15.7512 22.4253 15.4777 22.3862C15.2042 22.3471 14.9574 22.201 14.7917 21.98C14.6259 21.759 14.5547 21.4812 14.5938 21.2077C14.6329 20.9342 14.779 20.6874 15 20.5217L15.9683 19.7917L15 19.0633C14.8906 18.9813 14.7984 18.8784 14.7287 18.7607C14.659 18.643 14.6132 18.5127 14.5938 18.3773C14.5745 18.2419 14.582 18.104 14.6159 17.9715C14.6499 17.839 14.7096 17.7144 14.7917 17.605C14.8737 17.4956 14.9766 17.4034 15.0943 17.3337C15.212 17.264 15.3423 17.2181 15.4777 17.1988C15.6131 17.1795 15.751 17.187 15.8835 17.2209C16.016 17.2549 16.1406 17.3146 16.25 17.3967L17.7083 18.49L19.1667 17.3967C19.2761 17.3146 19.4006 17.2549 19.5331 17.2209C19.6657 17.187 19.8036 17.1795 19.939 17.1988C20.0744 17.2181 20.2047 17.264 20.3224 17.3337C20.4401 17.4034 20.5429 17.4956 20.625 17.605C20.7071 17.7144 20.7668 17.839 20.8007 17.9715C20.8347 18.104 20.8422 18.2419 20.8229 18.3773C20.8035 18.5127 20.7577 18.643 20.688 18.7607C20.6183 18.8784 20.5261 18.9813 20.4167 19.0633L19.4483 19.7917L20.4167 20.5217ZM10.4167 7.29167C10.1404 7.29167 9.87545 7.18192 9.6801 6.98657C9.48475 6.79122 9.375 6.52627 9.375 6.25V0H0V25H12.615C11.6472 24.0485 10.964 22.8459 10.6424 21.5274C10.3208 20.2089 10.3734 18.8268 10.7945 17.5366C11.2155 16.2463 11.9881 15.0992 13.0255 14.2241C14.0629 13.3491 15.3239 12.7808 16.6667 12.5833V7.29167H10.4167ZM3.125 4.16667H6.25C6.52627 4.16667 6.79122 4.27642 6.98657 4.47177C7.18192 4.66712 7.29167 4.93207 7.29167 5.20833C7.29167 5.4846 7.18192 5.74955 6.98657 5.94491C6.79122 6.14026 6.52627 6.25 6.25 6.25H3.125C2.84873 6.25 2.58378 6.14026 2.38843 5.94491C2.19308 5.74955 2.08333 5.4846 2.08333 5.20833C2.08333 4.93207 2.19308 4.66712 2.38843 4.47177C2.58378 4.27642 2.84873 4.16667 3.125 4.16667ZM8.33334 21.875H3.125C2.84873 21.875 2.58378 21.7653 2.38843 21.5699C2.19308 21.3746 2.08333 21.1096 2.08333 20.8333C2.08333 20.5571 2.19308 20.2921 2.38843 20.0968C2.58378 19.9014 2.84873 19.7917 3.125 19.7917H8.33334C8.6096 19.7917 8.87456 19.9014 9.06991 20.0968C9.26526 20.2921 9.375 20.5571 9.375 20.8333C9.375 21.1096 9.26526 21.3746 9.06991 21.5699C8.87456 21.7653 8.6096 21.875 8.33334 21.875ZM8.33334 16.6667H3.125C2.84873 16.6667 2.58378 16.5569 2.38843 16.3616C2.19308 16.1662 2.08333 15.9013 2.08333 15.625C2.08333 15.3487 2.19308 15.0838 2.38843 14.8884C2.58378 14.6931 2.84873 14.5833 3.125 14.5833H8.33334C8.6096 14.5833 8.87456 14.6931 9.06991 14.8884C9.26526 15.0838 9.375 15.3487 9.375 15.625C9.375 15.9013 9.26526 16.1662 9.06991 16.3616C8.87456 16.5569 8.6096 16.6667 8.33334 16.6667ZM13.5417 11.4583H3.125C2.84873 11.4583 2.58378 11.3486 2.38843 11.1532C2.19308 10.9579 2.08333 10.6929 2.08333 10.4167C2.08333 10.1404 2.19308 9.87545 2.38843 9.6801C2.58378 9.48475 2.84873 9.375 3.125 9.375H13.5417C13.8179 9.375 14.0829 9.48475 14.2782 9.6801C14.4736 9.87545 14.5833 10.1404 14.5833 10.4167C14.5833 10.6929 14.4736 10.9579 14.2782 11.1532C14.0829 11.3486 13.8179 11.4583 13.5417 11.4583ZM11.4583 1.47V5.20833H15.1983L11.4583 1.47Z" fill="#F34759"/>
</g>
<defs>
<clipPath id="clip0_219_7496">
<rect width="22.9167" height="25" fill="white"/>
</clipPath>
</defs>
</svg>
