<svg width="16" height="18" viewBox="0 0 16 18" fill="none" xmlns="http://www.w3.org/2000/svg">
<path d="M12.168 3.16667L12.168 4.83334L3.83464 4.83334L3.83464 3.16667L12.168 3.16667ZM12.168 10.6667L12.168 11.5L3.83464 11.5L3.83464 10.6667L12.168 10.6667ZM12.168 7.33334L12.168 9.83334L3.83464 9.83334L3.83464 7.33334L12.168 7.33334ZM12.168 5.66667L12.168 6.50001L3.83464 6.50001L3.83464 5.66667L12.168 5.66667ZM12.168 12.3333L12.168 14.8333L3.83464 14.8333L3.83464 12.3333L12.168 12.3333Z" fill="#878798"/>
<path d="M13.8333 2.33334L13.8333 5.66667L15.5 5.66667L15.5 2.33334C15.5 1.41417 14.7525 0.666672 13.8333 0.666672L10.5 0.666672L10.5 2.33334L13.8333 2.33334ZM0.5 2.33334L0.5 5.66667L2.16667 5.66667L2.16667 2.33334L5.5 2.33334L5.5 0.666671L2.16667 0.666671C1.2475 0.666671 0.5 1.41417 0.5 2.33334ZM15.5 15.6667L15.5 12.3333L13.8333 12.3333L13.8333 15.6667L10.5 15.6667L10.5 17.3333L13.8333 17.3333C14.7525 17.3333 15.5 16.5858 15.5 15.6667ZM2.16667 15.6667L2.16667 12.3333L0.499999 12.3333L0.499999 15.6667C0.499999 16.5858 1.2475 17.3333 2.16667 17.3333L5.5 17.3333L5.5 15.6667L2.16667 15.6667Z" fill="#878798"/>
</svg>
