<svg width="18" height="20" viewBox="0 0 18 20" fill="none" xmlns="http://www.w3.org/2000/svg">
<path d="M17.2422 5.38282C17.2422 5.375 17.2422 5.375 17.2344 5.36719C17.0928 5.12673 16.8908 4.92744 16.6484 4.78907L9.77344 0.921879C9.53942 0.791195 9.27585 0.722588 9.00781 0.722588C8.73978 0.722588 8.47621 0.791195 8.24219 0.921879L1.36719 4.78907C1.1227 4.92809 0.92027 5.13052 0.781251 5.375H0.773438C0.772945 5.38103 0.770146 5.38662 0.765626 5.39063C0.637293 5.62258 0.570081 5.88336 0.570313 6.14844V13.8516C0.571016 14.1294 0.645074 14.4022 0.784999 14.6423C0.924925 14.8823 1.12576 15.0812 1.36719 15.2188L8.24219 19.0859C8.45852 19.204 8.69908 19.2709 8.94531 19.2813H9.08594C9.32659 19.267 9.56122 19.2003 9.77344 19.0859L16.6484 15.2188C16.8899 15.0812 17.0907 14.8823 17.2306 14.6423C17.3706 14.4022 17.4446 14.1294 17.4453 13.8516V6.14844C17.4467 5.87974 17.3766 5.61551 17.2422 5.38282ZM9.00781 2.64063L14.6016 5.78907L12.8438 6.78125L7.1875 3.66407L9.00781 2.64063ZM9.07813 8.92188L3.42969 5.77344L5.26563 4.74219L10.9297 7.87501L9.07813 8.92188ZM2.44531 7.375L8.14063 10.5469L8.08594 16.8438L2.44531 13.6719V7.375ZM9.96094 16.8281L10.0156 10.5469L11.8984 9.47657V11.9141C11.8984 12.1627 11.9972 12.4012 12.173 12.577C12.3488 12.7528 12.5873 12.8516 12.8359 12.8516C13.0846 12.8516 13.323 12.7528 13.4989 12.577C13.6747 12.4012 13.7734 12.1627 13.7734 11.9141V8.41407L15.5703 7.39063V13.6719L9.96094 16.8281Z" fill="#878798"/>
</svg>
