<svg width="17" height="18" viewBox="0 0 17 18" fill="none" xmlns="http://www.w3.org/2000/svg">
<path d="M14.8325 0.666504H6.49917C5.58 0.666504 4.8325 1.414 4.8325 2.33317V6.98817L0.910005 10.9107C0.793497 11.0272 0.714158 11.1757 0.682019 11.3373C0.649879 11.4989 0.666381 11.6665 0.72944 11.8187C0.792498 11.971 0.899281 12.1011 1.03629 12.1927C1.1733 12.2842 1.33438 12.3331 1.49917 12.3332V16.4998C1.49917 16.7209 1.58697 16.9328 1.74325 17.0891C1.89953 17.2454 2.11149 17.3332 2.3325 17.3332H15.6658C15.8869 17.3332 16.0988 17.2454 16.2551 17.0891C16.4114 16.9328 16.4992 16.7209 16.4992 16.4998V2.33317C16.4992 1.414 15.7517 0.666504 14.8325 0.666504ZM8.16584 15.6665H3.16584V11.0115L5.66584 8.5115L8.16584 11.0115V15.6665ZM14.8325 15.6665H9.83251V12.3332C9.99748 12.3335 10.1588 12.2849 10.2961 12.1934C10.4334 12.1019 10.5404 11.9716 10.6035 11.8192C10.6666 11.6668 10.683 11.4991 10.6507 11.3373C10.6183 11.1756 10.5386 11.0271 10.4217 10.9107L6.49917 6.98817V2.33317H14.8325V15.6665Z" fill="#878798"/>
<path d="M8.16732 4H9.83398V5.66667H8.16732V4ZM11.5007 4H13.1673V5.66667H11.5007V4ZM11.5007 7.35917H13.1673V9H11.5007V7.35917ZM11.5007 10.6667H13.1673V12.3333H11.5007V10.6667ZM4.83398 11.5H6.50065V13.1667H4.83398V11.5Z" fill="#878798"/>
</svg>

