<svg width="16" height="18" viewBox="0 0 16 18" fill="none" xmlns="http://www.w3.org/2000/svg">
<path fill-rule="evenodd" clip-rule="evenodd" d="M3 2.33333H13C13.221 2.33333 13.433 2.42113 13.5893 2.57741C13.7455 2.73369 13.8333 2.94565 13.8333 3.16667V5.66667H2.16667V3.16667C2.16667 2.94565 2.25446 2.73369 2.41074 2.57741C2.56702 2.42113 2.77899 2.33333 3 2.33333ZM13.8333 14.8333V7.33333H2.16667V14.8333C2.16667 15.0543 2.25446 15.2663 2.41074 15.4226C2.56702 15.5789 2.77899 15.6667 3 15.6667H13C13.221 15.6667 13.433 15.5789 13.5893 15.4226C13.7455 15.2663 13.8333 15.0543 13.8333 14.8333ZM0.5 3.16667C0.5 2.50363 0.763392 1.86774 1.23223 1.3989C1.70107 0.93006 2.33696 0.666668 3 0.666668H13C13.663 0.666668 14.2989 0.93006 14.7678 1.3989C15.2366 1.86774 15.5 2.50363 15.5 3.16667V14.8333C15.5 15.4964 15.2366 16.1323 14.7678 16.6011C14.2989 17.0699 13.663 17.3333 13 17.3333H3C2.33696 17.3333 1.70107 17.0699 1.23223 16.6011C0.763392 16.1323 0.5 15.4964 0.5 14.8333V3.16667ZM3.83333 3.16667C3.61232 3.16667 3.40036 3.25447 3.24408 3.41075C3.0878 3.56703 3 3.77899 3 4C3 4.22102 3.0878 4.43298 3.24408 4.58926C3.40036 4.74554 3.61232 4.83333 3.83333 4.83333H5.5C5.72101 4.83333 5.93297 4.74554 6.08926 4.58926C6.24554 4.43298 6.33333 4.22102 6.33333 4C6.33333 3.77899 6.24554 3.56703 6.08926 3.41075C5.93297 3.25447 5.72101 3.16667 5.5 3.16667H3.83333ZM9.66667 4.83333C9.88768 4.83333 10.0996 4.74554 10.2559 4.58926C10.4122 4.43298 10.5 4.22102 10.5 4C10.5 3.77899 10.4122 3.56703 10.2559 3.41075C10.0996 3.25447 9.88768 3.16667 9.66667 3.16667C9.44565 3.16667 9.23369 3.25447 9.07741 3.41075C8.92113 3.56703 8.83333 3.77899 8.83333 4C8.83333 4.22102 8.92113 4.43298 9.07741 4.58926C9.23369 4.74554 9.44565 4.83333 9.66667 4.83333ZM13 4C13 4.22102 12.9122 4.43298 12.7559 4.58926C12.5996 4.74554 12.3877 4.83333 12.1667 4.83333C11.9457 4.83333 11.7337 4.74554 11.5774 4.58926C11.4211 4.43298 11.3333 4.22102 11.3333 4C11.3333 3.77899 11.4211 3.56703 11.5774 3.41075C11.7337 3.25447 11.9457 3.16667 12.1667 3.16667C12.3877 3.16667 12.5996 3.25447 12.7559 3.41075C12.9122 3.56703 13 3.77899 13 4ZM9.66667 11.5C9.66667 11.942 9.49107 12.366 9.17851 12.6785C8.86595 12.9911 8.44203 13.1667 8 13.1667C7.55797 13.1667 7.13405 12.9911 6.82149 12.6785C6.50893 12.366 6.33333 11.942 6.33333 11.5C6.33333 11.058 6.50893 10.6341 6.82149 10.3215C7.13405 10.0089 7.55797 9.83333 8 9.83333C8.44203 9.83333 8.86595 10.0089 9.17851 10.3215C9.49107 10.6341 9.66667 11.058 9.66667 11.5ZM11.3333 11.5C11.3333 12.3841 10.9821 13.2319 10.357 13.857C9.7319 14.4821 8.88406 14.8333 8 14.8333C7.11594 14.8333 6.2681 14.4821 5.64298 13.857C5.01786 13.2319 4.66667 12.3841 4.66667 11.5C4.66667 10.6159 5.01786 9.7681 5.64298 9.14298C6.2681 8.51786 7.11594 8.16667 8 8.16667C8.88406 8.16667 9.7319 8.51786 10.357 9.14298C10.9821 9.7681 11.3333 10.6159 11.3333 11.5Z" fill="#878798"/>
</svg>
