<svg width="22" height="20" viewBox="0 0 22 20" fill="none" xmlns="http://www.w3.org/2000/svg">
<path d="M21.4315 9.37629C21.4315 14.5547 16.6335 18.7526 10.7158 18.7526C9.65443 18.754 8.5975 18.6162 7.57202 18.3427C6.78977 18.7392 4.99354 19.5 1.9717 19.9956C1.70381 20.0385 1.50021 19.7599 1.60602 19.5107C2.0802 18.3909 2.50883 16.8988 2.63742 15.5378C0.996565 13.8903 0 11.7338 0 9.37629C0 4.1979 4.79798 0 10.7158 0C16.6335 0 21.4315 4.1979 21.4315 9.37629ZM6.02761 5.35788C5.84999 5.35788 5.67964 5.42844 5.55404 5.55404C5.42844 5.67964 5.35788 5.84999 5.35788 6.02761C5.35788 6.20524 5.42844 6.37559 5.55404 6.50119C5.67964 6.62679 5.84999 6.69735 6.02761 6.69735H15.4039C15.5815 6.69735 15.7519 6.62679 15.8775 6.50119C16.0031 6.37559 16.0736 6.20524 16.0736 6.02761C16.0736 5.84999 16.0031 5.67964 15.8775 5.55404C15.7519 5.42844 15.5815 5.35788 15.4039 5.35788H6.02761ZM6.02761 8.70655C5.84999 8.70655 5.67964 8.77711 5.55404 8.90271C5.42844 9.02831 5.35788 9.19866 5.35788 9.37629C5.35788 9.55391 5.42844 9.72426 5.55404 9.84986C5.67964 9.97546 5.84999 10.046 6.02761 10.046H15.4039C15.5815 10.046 15.7519 9.97546 15.8775 9.84986C16.0031 9.72426 16.0736 9.55391 16.0736 9.37629C16.0736 9.19866 16.0031 9.02831 15.8775 8.90271C15.7519 8.77711 15.5815 8.70655 15.4039 8.70655H6.02761ZM6.02761 12.0552C5.84999 12.0552 5.67964 12.1258 5.55404 12.2514C5.42844 12.377 5.35788 12.5473 5.35788 12.725C5.35788 12.9026 5.42844 13.0729 5.55404 13.1985C5.67964 13.3241 5.84999 13.3947 6.02761 13.3947H11.3855C11.5631 13.3947 11.7335 13.3241 11.8591 13.1985C11.9847 13.0729 12.0552 12.9026 12.0552 12.725C12.0552 12.5473 11.9847 12.377 11.8591 12.2514C11.7335 12.1258 11.5631 12.0552 11.3855 12.0552H6.02761Z" fill="#21BFAE"/>
</svg>
