<svg width="16" height="16" viewBox="0 0 16 16" fill="none" xmlns="http://www.w3.org/2000/svg">
<path d="M13.3333 8.33333V3.33333C13.3333 3.15278 13.2674 2.99653 13.1354 2.86458C13.0035 2.73264 12.8472 2.66667 12.6667 2.66667H7.66667C7.375 2.66667 7.17014 2.80208 7.05208 3.07292C6.93403 3.35764 6.98264 3.60069 7.19792 3.80208L8.69792 5.30208L3.13542 10.8646C3.00347 10.9965 2.9375 11.1528 2.9375 11.3333C2.9375 11.5139 3.00347 11.6701 3.13542 11.8021L4.19792 12.8646C4.32986 12.9965 4.48611 13.0625 4.66667 13.0625C4.84722 13.0625 5.00347 12.9965 5.13542 12.8646L10.6979 7.30208L12.1979 8.80208C12.3229 8.93403 12.4792 9 12.6667 9C12.75 9 12.8368 8.98264 12.9271 8.94792C13.1979 8.82986 13.3333 8.625 13.3333 8.33333ZM16 3V13C16 13.8264 15.7066 14.533 15.1198 15.1198C14.533 15.7066 13.8264 16 13 16H3C2.17361 16 1.46701 15.7066 0.880208 15.1198C0.293403 14.533 0 13.8264 0 13V3C0 2.17361 0.293403 1.46701 0.880208 0.880208C1.46701 0.293403 2.17361 0 3 0H13C13.8264 0 14.533 0.293403 15.1198 0.880208C15.7066 1.46701 16 2.17361 16 3Z" fill="#878798"/>
</svg>
