<svg width="14" height="18" viewBox="0 0 14 18" fill="none" xmlns="http://www.w3.org/2000/svg">
<path d="M9.49967 2.33333H1.99967V15.6667H11.9997V4.83333H9.49967V2.33333ZM1.99967 0.666664H10.333L13.6663 4V15.6667C13.6663 16.1087 13.4907 16.5326 13.1782 16.8452C12.8656 17.1577 12.4417 17.3333 11.9997 17.3333H1.99967C1.55765 17.3333 1.13372 17.1577 0.821163 16.8452C0.508602 16.5326 0.333008 16.1087 0.333008 15.6667V2.33333C0.333008 1.8913 0.508602 1.46738 0.821163 1.15482C1.13372 0.842259 1.55765 0.666664 1.99967 0.666664ZM3.66634 8.16666H10.333V9.83333H3.66634V8.16666ZM3.66634 11.5H10.333V13.1667H3.66634V11.5Z" fill="#878798"/>
</svg>
