<svg width="12" height="16" viewBox="0 0 12 16" fill="none" xmlns="http://www.w3.org/2000/svg">
<path d="M6.753 7.502L6.533 9.002H5.295L5.515 7.502H6.755H6.753ZM1.5 0C1.10218 0 0.720644 0.158035 0.43934 0.43934C0.158035 0.720644 0 1.10218 0 1.5V14.5C0 14.8978 0.158035 15.2794 0.43934 15.5607C0.720644 15.842 1.10218 16 1.5 16H10.5C10.8978 16 11.2794 15.842 11.5607 15.5607C11.842 15.2794 12 14.8978 12 14.5V1.5C12 1.10218 11.842 0.720644 11.5607 0.43934C11.2794 0.158035 10.8978 0 10.5 0H1.5ZM4.072 10.444L4.137 10.002H3.5C3.36739 10.002 3.24021 9.94932 3.14645 9.85555C3.05268 9.76179 3 9.63461 3 9.502C3 9.36939 3.05268 9.24222 3.14645 9.14845C3.24021 9.05468 3.36739 9.002 3.5 9.002H4.284L4.504 7.502H4C3.86739 7.502 3.74021 7.44932 3.64645 7.35555C3.55268 7.26179 3.5 7.13461 3.5 7.002C3.5 6.86939 3.55268 6.74222 3.64645 6.64845C3.74021 6.55468 3.86739 6.502 4 6.502H4.65L4.807 5.428C4.82623 5.29672 4.89682 5.17845 5.00325 5.09922C5.05594 5.05998 5.11585 5.03152 5.17955 5.01544C5.24325 4.99936 5.3095 4.99598 5.3745 5.0055C5.4395 5.01502 5.502 5.03725 5.55841 5.07092C5.61482 5.1046 5.66405 5.14905 5.70328 5.20175C5.74252 5.25444 5.77098 5.31435 5.78706 5.37805C5.80314 5.44175 5.80652 5.508 5.797 5.573L5.66 6.503H6.9L7.057 5.428C7.06652 5.363 7.08875 5.3005 7.12242 5.24409C7.1561 5.18768 7.20055 5.13845 7.25325 5.09922C7.30594 5.05998 7.36585 5.03152 7.42955 5.01544C7.49325 4.99936 7.5595 4.99598 7.6245 5.0055C7.6895 5.01502 7.752 5.03725 7.80841 5.07092C7.86482 5.1046 7.91405 5.14905 7.95328 5.20175C7.99252 5.25444 8.02098 5.31435 8.03706 5.37805C8.05314 5.44175 8.05652 5.508 8.047 5.573L7.911 6.503H8.5C8.63261 6.503 8.75979 6.55568 8.85355 6.64945C8.94732 6.74321 9 6.87039 9 7.003C9 7.13561 8.94732 7.26278 8.85355 7.35655C8.75979 7.45032 8.63261 7.503 8.5 7.503H7.764L7.544 9.003H8C8.13261 9.003 8.25979 9.05568 8.35355 9.14945C8.44732 9.24321 8.5 9.37039 8.5 9.503C8.5 9.63561 8.44732 9.76278 8.35355 9.85655C8.25979 9.95032 8.13261 10.003 8 10.003H7.398L7.312 10.589C7.29277 10.7203 7.22218 10.8385 7.11575 10.9178C7.00933 10.997 6.87578 11.0307 6.7445 11.0115C6.61322 10.9923 6.49495 10.9217 6.41572 10.8153C6.33648 10.7088 6.30277 10.5753 6.322 10.444L6.387 10.002H5.147L5.062 10.589C5.04277 10.7203 4.97218 10.8385 4.86575 10.9178C4.75933 10.997 4.62578 11.0307 4.4945 11.0115C4.36322 10.9923 4.24495 10.9217 4.16572 10.8153C4.08648 10.7088 4.05277 10.5753 4.072 10.444Z" fill="#878798"/>
</svg>
