<svg width="17" height="16" viewBox="0 0 17 16" fill="none" xmlns="http://www.w3.org/2000/svg">
<path d="M14.6679 10.5569L16.4494 11.4482C16.6779 11.5625 16.6779 11.8886 16.4494 12.0029L8.58794 15.9346C8.50181 15.9776 8.40686 16 8.31059 16C8.21433 16 8.11938 15.9776 8.03324 15.9346L0.171829 12.0029C0.120474 11.977 0.077314 11.9374 0.0471583 11.8884C0.0170026 11.8394 0.00103523 11.7831 0.00103523 11.7255C0.00103523 11.668 0.0170026 11.6117 0.0471583 11.5627C0.077314 11.5137 0.120474 11.4741 0.171829 11.4482L1.95436 10.5569L7.4775 13.319C8.00208 13.5808 8.62014 13.5808 9.14369 13.319L14.6668 10.5559L14.6679 10.5569ZM8.03324 0.0653551C8.11938 0.0223736 8.21433 0 8.31059 0C8.40686 0 8.50181 0.0223736 8.58794 0.0653551L16.4494 3.99606C16.5007 4.02211 16.5438 4.06186 16.5739 4.11091C16.604 4.15996 16.6199 4.21638 16.6199 4.27393C16.6199 4.33148 16.604 4.38791 16.5739 4.43695C16.5438 4.486 16.5007 4.52575 16.4494 4.5518L8.58794 8.48147C8.50181 8.52445 8.40686 8.54682 8.31059 8.54682C8.21433 8.54682 8.11938 8.52445 8.03324 8.48147L0.171829 4.5518C0.120202 4.52602 0.0767776 4.48637 0.0464272 4.43729C0.0160767 4.3882 0 4.33164 0 4.27393C0 4.21623 0.0160767 4.15966 0.0464272 4.11058C0.0767776 4.0615 0.120202 4.02184 0.171829 3.99606L8.03324 0.0653551Z" fill="#878798"/>
<path d="M14.6678 6.83087L16.4493 7.72213C16.6778 7.8364 16.6778 8.16257 16.4493 8.27683L8.58788 12.2075C8.50175 12.2505 8.4068 12.2729 8.31053 12.2729C8.21427 12.2729 8.11932 12.2505 8.03318 12.2075L0.17177 8.27683C0.120415 8.25095 0.0772553 8.21131 0.0470996 8.16234C0.0169439 8.11337 0.000976562 8.05699 0.000976563 7.99948C0.000976562 7.94197 0.0169439 7.88559 0.0470996 7.83662C0.0772553 7.78765 0.120415 7.74802 0.17177 7.72213L1.9543 6.83087L7.47744 9.59295C8.00202 9.85472 8.62009 9.85472 9.14363 9.59295L14.6668 6.83087H14.6678Z" fill="#878798"/>
</svg>
