<svg width="16" height="18" viewBox="0 0 16 18" fill="none" xmlns="http://www.w3.org/2000/svg">
<path d="M11.3333 10.6667H4.66667C4.44565 10.6667 4.23369 10.7545 4.07741 10.9107C3.92113 11.067 3.83333 11.279 3.83333 11.5C3.83333 11.721 3.92113 11.933 4.07741 12.0893C4.23369 12.2455 4.44565 12.3333 4.66667 12.3333H11.3333C11.5543 12.3333 11.7663 12.2455 11.9226 12.0893C12.0789 11.933 12.1667 11.721 12.1667 11.5C12.1667 11.279 12.0789 11.067 11.9226 10.9107C11.7663 10.7545 11.5543 10.6667 11.3333 10.6667ZM11.3333 7.33333H6.33333C6.11232 7.33333 5.90036 7.42113 5.74408 7.57741C5.5878 7.73369 5.5 7.94565 5.5 8.16667C5.5 8.38768 5.5878 8.59964 5.74408 8.75592C5.90036 8.9122 6.11232 9 6.33333 9H11.3333C11.5543 9 11.7663 8.9122 11.9226 8.75592C12.0789 8.59964 12.1667 8.38768 12.1667 8.16667C12.1667 7.94565 12.0789 7.73369 11.9226 7.57741C11.7663 7.42113 11.5543 7.33333 11.3333 7.33333ZM14.6667 2.33333H12.1667V1.5C12.1667 1.27899 12.0789 1.06702 11.9226 0.910744C11.7663 0.754463 11.5543 0.666666 11.3333 0.666666C11.1123 0.666666 10.9004 0.754463 10.7441 0.910744C10.5878 1.06702 10.5 1.27899 10.5 1.5V2.33333H8.83333V1.5C8.83333 1.27899 8.74554 1.06702 8.58926 0.910744C8.43297 0.754463 8.22101 0.666666 8 0.666666C7.77899 0.666666 7.56702 0.754463 7.41074 0.910744C7.25446 1.06702 7.16667 1.27899 7.16667 1.5V2.33333H5.5V1.5C5.5 1.27899 5.4122 1.06702 5.25592 0.910744C5.09964 0.754463 4.88768 0.666666 4.66667 0.666666C4.44565 0.666666 4.23369 0.754463 4.07741 0.910744C3.92113 1.06702 3.83333 1.27899 3.83333 1.5V2.33333H1.33333C1.11232 2.33333 0.900358 2.42113 0.744078 2.57741C0.587797 2.73369 0.5 2.94565 0.5 3.16667V14.8333C0.5 15.4964 0.763392 16.1323 1.23223 16.6011C1.70107 17.0699 2.33696 17.3333 3 17.3333H13C13.663 17.3333 14.2989 17.0699 14.7678 16.6011C15.2366 16.1323 15.5 15.4964 15.5 14.8333V3.16667C15.5 2.94565 15.4122 2.73369 15.2559 2.57741C15.0996 2.42113 14.8877 2.33333 14.6667 2.33333ZM13.8333 14.8333C13.8333 15.0543 13.7455 15.2663 13.5893 15.4226C13.433 15.5789 13.221 15.6667 13 15.6667H3C2.77899 15.6667 2.56702 15.5789 2.41074 15.4226C2.25446 15.2663 2.16667 15.0543 2.16667 14.8333V4H3.83333V4.83333C3.83333 5.05435 3.92113 5.26631 4.07741 5.42259C4.23369 5.57887 4.44565 5.66667 4.66667 5.66667C4.88768 5.66667 5.09964 5.57887 5.25592 5.42259C5.4122 5.26631 5.5 5.05435 5.5 4.83333V4H7.16667V4.83333C7.16667 5.05435 7.25446 5.26631 7.41074 5.42259C7.56702 5.57887 7.77899 5.66667 8 5.66667C8.22101 5.66667 8.43297 5.57887 8.58926 5.42259C8.74554 5.26631 8.83333 5.05435 8.83333 4.83333V4H10.5V4.83333C10.5 5.05435 10.5878 5.26631 10.7441 5.42259C10.9004 5.57887 11.1123 5.66667 11.3333 5.66667C11.5543 5.66667 11.7663 5.57887 11.9226 5.42259C12.0789 5.26631 12.1667 5.05435 12.1667 4.83333V4H13.8333V14.8333Z" fill="#878798"/>
</svg>

