<svg width="16" height="18" viewBox="0 0 16 18" fill="none" xmlns="http://www.w3.org/2000/svg">
<path d="M3 17.3333H13.8333C14.2754 17.3333 14.6993 17.1577 15.0118 16.8452C15.3244 16.5326 15.5 16.1087 15.5 15.6667V2.33333C15.5 1.8913 15.3244 1.46738 15.0118 1.15482C14.6993 0.842259 14.2754 0.666664 13.8333 0.666664H2.16667C1.72464 0.666664 1.30072 0.842259 0.988155 1.15482C0.675595 1.46738 0.5 1.8913 0.5 2.33333V15.6667C0.5 16.1087 0.675595 16.5326 0.988155 16.8452C1.30072 17.1577 1.72464 17.3333 2.16667 17.3333H3ZM8 3.16583C9.3725 3.16583 10.5 4.29166 10.5 5.66583C10.5 7.03916 9.3725 8.16666 8 8.16666C6.6275 8.16666 5.5 7.03916 5.5 5.66583C5.5 4.29166 6.6275 3.16583 8 3.16583ZM3 13.375C3 11.5258 5.25417 9.625 8 9.625C10.7458 9.625 13 11.5258 13 13.375V14H3V13.375Z" fill="#878798"/>
</svg>
