<svg width="17" height="17" viewBox="0 0 17 17" fill="none" xmlns="http://www.w3.org/2000/svg">
<path d="M16.1641 3.33594L13.6641 0.835935C13.577 0.748535 13.4735 0.679188 13.3595 0.631871C13.2456 0.584553 13.1234 0.560196 13 0.560196C12.8766 0.560196 12.7544 0.584553 12.6405 0.631871C12.5265 0.679188 12.423 0.748535 12.3359 0.835935L4.83594 8.33594C4.7486 8.42296 4.67945 8.52649 4.63251 8.6405C4.58557 8.7545 4.56177 8.87671 4.5625 9V11.5C4.5625 11.7486 4.66127 11.9871 4.83709 12.1629C5.0129 12.3387 5.25136 12.4375 5.5 12.4375H8C8.24837 12.4356 8.48637 12.3376 8.66406 12.1641L16.1641 4.66406C16.2515 4.57696 16.3208 4.47347 16.3681 4.35952C16.4154 4.24556 16.4398 4.12339 16.4398 4C16.4398 3.87661 16.4154 3.75444 16.3681 3.64048C16.3208 3.52653 16.2515 3.42303 16.1641 3.33594ZM13 2.82812L14.1719 4L13.3125 4.85937L12.1406 3.6875L13 2.82812ZM7.60938 10.5625H6.4375V9.39062L10.8125 5.01562L11.9844 6.1875L7.60938 10.5625ZM15.8125 9.04687V15.25C15.8104 15.6638 15.6452 16.06 15.3526 16.3526C15.06 16.6452 14.6638 16.8104 14.25 16.8125H1.75C1.33623 16.8104 0.939996 16.6452 0.647415 16.3526C0.354833 16.06 0.189553 15.6638 0.1875 15.25V2.75C0.189553 2.33623 0.354833 1.93999 0.647415 1.64741C0.939996 1.35483 1.33623 1.18955 1.75 1.1875H7.95312C8.20177 1.1875 8.44022 1.28627 8.61604 1.46209C8.79185 1.6379 8.89062 1.87636 8.89062 2.125C8.89062 2.37364 8.79185 2.6121 8.61604 2.78791C8.44022 2.96373 8.20177 3.0625 7.95312 3.0625H2.0625V14.9375H13.9375V9.04687C13.9375 8.79823 14.0363 8.55978 14.2121 8.38396C14.3879 8.20815 14.6264 8.10937 14.875 8.10937C15.1236 8.10937 15.3621 8.20815 15.5379 8.38396C15.7137 8.55978 15.8125 8.79823 15.8125 9.04687Z" fill="#878798"/>
</svg>
