<svg width="16" height="16" viewBox="0 0 16 16" fill="none" xmlns="http://www.w3.org/2000/svg">
<path fill-rule="evenodd" clip-rule="evenodd" d="M9.8444 1.16343C9.67707 0.814979 9.4147 0.520889 9.08751 0.31505C8.76033 0.109211 8.38164 0 7.9951 0C7.60855 0 7.22987 0.109211 6.90268 0.31505C6.5755 0.520889 6.31312 0.814979 6.1458 1.16343L0.243749 12.7734C-0.462373 14.1594 0.429915 16 2.09232 16H13.8971C15.5603 16 16.4511 14.1602 15.7464 12.7734L9.8444 1.16343ZM7.9951 5.09183C8.18796 5.09183 8.37293 5.16845 8.50931 5.30482C8.64569 5.4412 8.72231 5.62617 8.72231 5.81904V9.4551C8.72231 9.64797 8.64569 9.83293 8.50931 9.96931C8.37293 10.1057 8.18796 10.1823 7.9951 10.1823C7.80223 10.1823 7.61726 10.1057 7.48088 9.96931C7.3445 9.83293 7.26788 9.64797 7.26788 9.4551V5.81904C7.26788 5.62617 7.3445 5.4412 7.48088 5.30482C7.61726 5.16845 7.80223 5.09183 7.9951 5.09183V5.09183ZM7.9951 11.2731C8.18796 11.2731 8.37293 11.3497 8.50931 11.4861C8.64569 11.6225 8.72231 11.8075 8.72231 12.0003V12.3639C8.72231 12.5568 8.64569 12.7418 8.50931 12.8782C8.37293 13.0145 8.18796 13.0912 7.9951 13.0912C7.80223 13.0912 7.61726 13.0145 7.48088 12.8782C7.3445 12.7418 7.26788 12.5568 7.26788 12.3639V12.0003C7.26788 11.8075 7.3445 11.6225 7.48088 11.4861C7.61726 11.3497 7.80223 11.2731 7.9951 11.2731V11.2731Z" fill="#878798"/>
</svg>
