<svg width="18" height="18" viewBox="0 0 18 18" fill="none" xmlns="http://www.w3.org/2000/svg">
<path d="M13.7592 8.45401L8.45642 13.758L10.5768 18L18.0012 10.5756L13.7592 8.45401Z" fill="white"/>
<path d="M7.97879 6.91679L1.28039 0.219589C1.13956 0.0790774 0.948677 0.000263715 0.749738 0.000488762C0.550799 0.000713809 0.360101 0.0799603 0.219589 0.22079C0.0790774 0.36162 0.000263722 0.552499 0.000488762 0.751437C0.000713802 0.950376 0.0799567 1.14108 0.220787 1.28159L6.91799 7.97759C6.44196 8.69912 6.22973 9.56292 6.3172 10.4229C6.40466 11.2829 6.78645 12.0863 7.39799 12.6972L12.7008 7.39319C12.0901 6.78124 11.2867 6.39918 10.4266 6.3117C9.56647 6.22423 8.70257 6.43672 7.98119 6.91319L7.97879 6.91679Z" fill="white"/>
<path d="M0.0012207 16.5H7.50002V18H0.0012207V16.5Z" fill="white"/>
<path d="M3 13.5H6V15H3V13.5Z" fill="white"/>
</svg>
