<svg width="25" height="25" viewBox="0 0 25 25" fill="none" xmlns="http://www.w3.org/2000/svg">
<g clip-path="url(#clip0_219_7489)">
<path d="M19.11 11.7417L11.745 19.1084L14.69 25L25.0017 14.6884L19.11 11.7417Z" fill="white"/>
<path d="M11.0817 9.60671L1.77837 0.305039C1.58277 0.109884 1.31766 0.000420524 1.04136 0.000733089C0.765053 0.00104566 0.500194 0.11111 0.305039 0.306707C0.109884 0.502305 0.000420534 0.767413 0.000733089 1.04372C0.00104564 1.32002 0.111105 1.58489 0.306702 1.78004L9.60837 11.08C8.94722 12.0822 8.65246 13.2819 8.77394 14.4763C8.89541 15.6707 9.42567 16.7865 10.275 17.635L17.64 10.2684C16.7919 9.41845 15.676 8.8878 14.4814 8.76631C13.2868 8.64481 12.087 8.93994 11.085 9.60171L11.0817 9.60671Z" fill="white"/>
<path d="M0.00170898 22.9166H10.4167V25H0.00170898V22.9166Z" fill="white"/>
<path d="M4.16663 18.75H8.33329V20.8333H4.16663V18.75Z" fill="white"/>
</g>
<defs>
<clipPath id="clip0_219_7489">
<rect width="25" height="25" fill="white"/>
</clipPath>
</defs>
</svg>
