<svg width="16" height="17" viewBox="0 0 16 17" fill="none" xmlns="http://www.w3.org/2000/svg">
<path d="M14.5002 0.5H1.16683C0.945816 0.5 0.733854 0.587797 0.577574 0.744078C0.421294 0.900358 0.333496 1.11232 0.333496 1.33333V3.49167C0.333496 3.9275 0.510996 4.35583 0.81933 4.66417L5.3335 9.17833V15.5C5.33366 15.642 5.37006 15.7816 5.43924 15.9055C5.50843 16.0295 5.60812 16.1338 5.72886 16.2085C5.84961 16.2832 5.98742 16.3258 6.12925 16.3323C6.27108 16.3389 6.41222 16.3091 6.53933 16.2458L9.87266 14.5792C10.1552 14.4375 10.3335 14.1492 10.3335 13.8333V9.17833L14.8477 4.66417C15.156 4.35583 15.3335 3.9275 15.3335 3.49167V1.33333C15.3335 1.11232 15.2457 0.900358 15.0894 0.744078C14.9331 0.587797 14.7212 0.5 14.5002 0.5ZM8.911 8.24417C8.83346 8.32142 8.77197 8.41325 8.73007 8.51436C8.68816 8.61548 8.66667 8.72388 8.66683 8.83333V13.3183L7.00016 14.1517V8.83333C7.00032 8.72388 6.97883 8.61548 6.93693 8.51436C6.89502 8.41325 6.83353 8.32142 6.756 8.24417L2.00016 3.49167V2.16667H13.6677L13.6693 3.48583L8.911 8.24417Z" fill="#878798"/>
</svg>
