<svg width="19" height="22" viewBox="0 0 19 22" fill="none" xmlns="http://www.w3.org/2000/svg">
<path d="M5.414 0.41394L4 1.82794L5.172 2.99994H1C0.447 2.99994 0 3.44194 0 3.98994V6.54594C0 7.07094 0.211 7.57494 0.586 7.94594L6.707 13.9999C6.79974 14.0914 6.8734 14.2004 6.92369 14.3206C6.97399 14.4407 6.99993 14.5697 7 14.6999V21.0099C7 21.7449 7.782 22.2229 8.447 21.8939L10.447 20.9049C10.6126 20.8237 10.7521 20.6978 10.8499 20.5414C10.9476 20.385 10.9996 20.2044 11 20.0199V14.6999C11 14.4379 11.105 14.1859 11.293 13.9999L13.746 11.5739L16.728 14.5559L18.142 13.1419L5.414 0.41394ZM17.414 7.94594L16.59 8.76094L10.828 2.99994H17C17.553 2.99994 18 3.44194 18 3.98994V6.54594C17.9997 6.80645 17.9478 7.06433 17.8472 7.30464C17.7466 7.54495 17.5994 7.76292 17.414 7.94594V7.94594Z" fill="#FF4848"/>
</svg>
