<svg width="20" height="18" viewBox="0 0 20 18" fill="none" xmlns="http://www.w3.org/2000/svg">
<path d="M1 0H19C19.2652 0 19.5196 0.105357 19.7071 0.292893C19.8946 0.48043 20 0.734784 20 1V17C20 17.2652 19.8946 17.5196 19.7071 17.7071C19.5196 17.8946 19.2652 18 19 18H1C0.734784 18 0.48043 17.8946 0.292893 17.7071C0.105357 17.5196 0 17.2652 0 17V1C0 0.734784 0.105357 0.48043 0.292893 0.292893C0.48043 0.105357 0.734784 0 1 0ZM9 5.5V12.5H11V5.5H9ZM8.715 5.5H6.601L5.104 9.613L3.607 5.5H1.493L4.104 12.464H6.104L8.715 5.5ZM14 10.5H15.5C16.163 10.5 16.7989 10.2366 17.2678 9.76777C17.7366 9.29893 18 8.66304 18 8C18 7.33696 17.7366 6.70107 17.2678 6.23223C16.7989 5.76339 16.163 5.5 15.5 5.5H12V12.5H14V10.5ZM14 8.5V7.5H15.5C15.6326 7.5 15.7598 7.55268 15.8536 7.64645C15.9473 7.74021 16 7.86739 16 8C16 8.13261 15.9473 8.25979 15.8536 8.35355C15.7598 8.44732 15.6326 8.5 15.5 8.5H14Z" fill="#FF4848"/>
</svg>
