<svg width="13" height="15" viewBox="0 0 13 15" fill="none" xmlns="http://www.w3.org/2000/svg">
<path fill-rule="evenodd" clip-rule="evenodd" d="M0 1.5C0 1.10218 0.158035 0.720644 0.43934 0.43934C0.720644 0.158035 1.10218 0 1.5 0L9.707 0L13 3.293V13.5C13 13.8978 12.842 14.2794 12.5607 14.5607C12.2794 14.842 11.8978 15 11.5 15H1.5C1.10218 15 0.720644 14.842 0.43934 14.5607C0.158035 14.2794 0 13.8978 0 13.5V1.5ZM2 7.293V6H1V7.707L1.793 8.5L1 9.293V11H2V9.707L2.5 9.207L3 9.707V11H4V9.293L3.207 8.5L4 7.707V6H3V7.293L2.5 7.793L2 7.293ZM5 6H6V10H8V11H5V6ZM12 6H9V9H11V10H9V11H12V8H10V7H12V6Z" fill="#21BFAE"/>
</svg>
