<svg width="31" height="30" viewBox="0 0 31 30" fill="none" xmlns="http://www.w3.org/2000/svg">
<path d="M7.01839 19.2333C6.70023 18.8777 6.51276 18.4243 6.48695 17.9478V12.0062C6.51269 11.5297 6.70016 11.0762 7.01839 10.7207L7.43868 10.3002C7.57963 10.159 7.65877 9.96755 7.65877 9.76796C7.65877 9.56838 7.57963 9.37694 7.43868 9.23569L2.98056 4.77534C2.83919 4.6345 2.6478 4.55542 2.44827 4.55542C2.24874 4.55542 2.05735 4.6345 1.91598 4.77534L0.218994 6.47296C0.0787051 6.61457 0 6.80586 0 7.00523C0 7.2046 0.0787051 7.3959 0.218994 7.53751L3.40084 10.7205C3.71963 11.0758 3.90736 11.5294 3.93284 12.0061V17.9477C3.90743 18.4241 3.71967 18.8774 3.40084 19.2323L0.218994 22.4165C0.0787051 22.5582 0 22.7495 0 22.9488C0 23.1481 0.0787051 23.3395 0.218994 23.4811L1.91598 25.1787C2.05736 25.3195 2.24875 25.3986 2.44827 25.3986C2.64778 25.3986 2.83917 25.3195 2.98056 25.1787L7.43868 20.718C7.57961 20.5766 7.65876 20.3853 7.65876 20.1858C7.65876 19.9861 7.57961 19.7948 7.43868 19.6536L7.01839 19.2333Z" fill="#583BD1"/>
<path d="M19.2701 22.9788C18.9148 23.297 18.4617 23.4848 17.9854 23.5111H12.0477C11.571 23.4848 11.1175 23.2972 10.7618 22.9788L10.3425 22.5572C10.2006 22.4169 10.0092 22.3382 9.80969 22.3382C9.6102 22.3382 9.41877 22.4169 9.27691 22.5572L4.81935 27.0176C4.67861 27.1593 4.59961 27.3509 4.59961 27.5505C4.59961 27.7502 4.67861 27.9418 4.81935 28.0833L6.51633 29.781C6.65802 29.9214 6.84935 30.0001 7.04876 30.0001C7.24816 30.0001 7.43949 29.9214 7.58118 29.781L10.7623 26.5963C11.118 26.2782 11.5714 26.0906 12.0478 26.0643H17.9872C18.4635 26.0904 18.9167 26.2781 19.272 26.5963L22.4545 29.781C22.5962 29.9214 22.7874 30.0001 22.9868 30.0001C23.186 30.0001 23.3773 29.9214 23.5188 29.781L25.2158 28.0833C25.3566 27.9418 25.4356 27.7502 25.4356 27.5505C25.4356 27.3509 25.3566 27.1593 25.2158 27.0176L20.755 22.5569C20.6135 22.4166 20.4223 22.3379 20.2231 22.3379C20.0238 22.3379 19.8325 22.4166 19.691 22.5569L19.2701 22.9788Z" fill="#583BD1"/>
<path d="M23.1213 10.7665C23.4403 11.1224 23.6284 11.5766 23.6543 12.0539V17.9932C23.6282 18.4703 23.4402 18.9241 23.1213 19.2796L22.7009 19.701C22.5604 19.8425 22.4816 20.0338 22.4816 20.2333C22.4816 20.4327 22.5604 20.624 22.7009 20.7656L27.1603 25.2254C27.3017 25.3662 27.4931 25.4451 27.6925 25.4451C27.892 25.4451 28.0834 25.3662 28.2247 25.2254L29.9217 23.5268C30.0625 23.3855 30.1416 23.194 30.1416 22.9945C30.1416 22.7949 30.0625 22.6035 29.9217 22.4621L26.7406 19.279C26.4216 18.9235 26.2334 18.4697 26.2074 17.9927L26.2082 12.0533C26.2338 11.576 26.4216 11.1219 26.7406 10.766L29.9217 7.58292C30.0625 7.44182 30.1416 7.25059 30.1416 7.05121C30.1416 6.85184 30.0625 6.66061 29.9217 6.51951L28.2247 4.8209C28.1548 4.75098 28.0719 4.69551 27.9806 4.65767C27.8892 4.61983 27.7914 4.60034 27.6925 4.60034C27.5937 4.60034 27.4958 4.61983 27.4045 4.65767C27.3131 4.69551 27.2302 4.75098 27.1603 4.8209L22.7009 9.28054C22.5604 9.42203 22.4816 9.61341 22.4816 9.81288C22.4816 10.0124 22.5604 10.2037 22.7009 10.3452L23.1213 10.7665Z" fill="#583BD1"/>
<path d="M10.8691 7.02112C11.2244 6.70241 11.6777 6.5146 12.1542 6.48877H18.0924C18.5687 6.51505 19.0218 6.70281 19.3773 7.02112L19.7986 7.44241C19.8684 7.51231 19.9513 7.56775 20.0426 7.60559C20.1338 7.64342 20.2316 7.66291 20.3304 7.66291C20.4292 7.66291 20.5271 7.64342 20.6182 7.60559C20.7095 7.56775 20.7924 7.51231 20.8623 7.44241L25.321 2.98177C25.4617 2.84016 25.5406 2.6486 25.5406 2.44893C25.5406 2.24928 25.4617 2.05772 25.321 1.91609L23.624 0.220463C23.4828 0.0792964 23.2913 0 23.0917 0C22.892 0 22.7005 0.0792964 22.5593 0.220463L19.3775 3.4035C19.022 3.7218 18.5689 3.90955 18.0926 3.93583H12.1542C11.6777 3.91 11.2244 3.72219 10.8691 3.4035L7.6873 0.220463C7.54562 0.0801556 7.35431 0.0014506 7.15494 0.0014506C6.95558 0.0014506 6.76427 0.0801556 6.62258 0.220463L4.9256 1.91808C4.78491 2.05967 4.70593 2.2512 4.70593 2.45084C4.70593 2.65049 4.78491 2.84202 4.9256 2.98361L9.3833 7.44226C9.52453 7.58343 9.716 7.66272 9.91566 7.66272C10.1153 7.66272 10.3068 7.58343 10.448 7.44226L10.8691 7.02112Z" fill="#583BD1"/>
</svg>
