<svg width="14" height="14" viewBox="0 0 14 14" fill="none" xmlns="http://www.w3.org/2000/svg">
<path d="M14 9.75001V13.25C14.0003 13.3486 13.981 13.4462 13.9434 13.5373C13.9058 13.6284 13.8506 13.7112 13.7809 13.7809C13.7112 13.8506 13.6284 13.9058 13.5373 13.9434C13.4462 13.981 13.3486 14.0003 13.25 14H9.75001C9.08157 14 8.7472 13.1906 9.21876 12.7188L10.35 11.5875L7.00001 8.23751L3.64907 11.5906L4.78126 12.7188C5.25282 13.1906 4.91845 14 4.25001 14H0.750003C0.651442 14.0003 0.553804 13.981 0.462698 13.9434C0.371592 13.9058 0.288814 13.8506 0.219121 13.7809C0.149428 13.7112 0.0941925 13.6284 0.056589 13.5373C0.0189855 13.4462 -0.000244975 13.3486 2.35575e-06 13.25V9.75001C2.35575e-06 9.08126 0.809066 8.74689 1.28125 9.21876L2.41219 10.35L5.76438 7.00001L2.41188 3.64688L1.28125 4.78126C0.809378 5.25313 2.35575e-06 4.91876 2.35575e-06 4.25001V0.750003C-0.000244975 0.651442 0.0189855 0.553804 0.056589 0.462698C0.0941925 0.371592 0.149428 0.288814 0.219121 0.219121C0.288814 0.149428 0.371592 0.0941925 0.462698 0.056589C0.553804 0.0189856 0.651442 -0.000244975 0.750003 2.35575e-06H4.25001C4.91845 2.35575e-06 5.25282 0.809378 4.78126 1.28125L3.65001 2.4125L7.00001 5.76251L10.351 2.40938L9.21876 1.28125C8.7472 0.809378 9.08157 2.35575e-06 9.75001 2.35575e-06H13.25C13.3486 -0.000244975 13.4462 0.0189856 13.5373 0.056589C13.6284 0.0941925 13.7112 0.149428 13.7809 0.219121C13.8506 0.288814 13.9058 0.371592 13.9434 0.462698C13.981 0.553804 14.0003 0.651442 14 0.750003V4.25001C14 4.91876 13.191 5.25313 12.7188 4.78126L11.5878 3.65001L8.23564 7.00001L11.5881 10.3531L12.7188 9.22189C13.1906 8.74689 14 9.08126 14 9.75001Z" fill="#555479"/>
</svg>

