<svg width="16" height="18" viewBox="0 0 16 18" fill="none" xmlns="http://www.w3.org/2000/svg">
<path d="M11.3333 13.1665V10.6665H5.5V7.33317H11.3333V4.83317L15.5 8.99984L11.3333 13.1665ZM9.66667 0.666504C10.1087 0.666504 10.5326 0.842099 10.8452 1.15466C11.1577 1.46722 11.3333 1.89114 11.3333 2.33317V3.99984H9.66667V2.33317H2.16667V15.6665H9.66667V13.9998H11.3333V15.6665C11.3333 16.1085 11.1577 16.5325 10.8452 16.845C10.5326 17.1576 10.1087 17.3332 9.66667 17.3332H2.16667C1.72464 17.3332 1.30072 17.1576 0.988155 16.845C0.675595 16.5325 0.5 16.1085 0.5 15.6665V2.33317C0.5 1.89114 0.675595 1.46722 0.988155 1.15466C1.30072 0.842099 1.72464 0.666504 2.16667 0.666504H9.66667Z" fill="white"/>
</svg>

