<svg width="20" height="18" viewBox="0 0 20 18" fill="none" xmlns="http://www.w3.org/2000/svg">
<path d="M17.5006 10.6665H2.50065V2.33317H17.5006V10.6665ZM17.5006 0.666504H2.50065C1.57565 0.666504 0.833984 1.40817 0.833984 2.33317V12.3332C0.833984 12.7752 1.00958 13.1991 1.32214 13.5117C1.6347 13.8242 2.05862 13.9998 2.50065 13.9998H8.33398L6.66732 16.4998V17.3332H13.334V16.4998L11.6673 13.9998H17.5006C17.9427 13.9998 18.3666 13.8242 18.6792 13.5117C18.9917 13.1991 19.1673 12.7752 19.1673 12.3332V2.33317C19.1673 1.89114 18.9917 1.46722 18.6792 1.15466C18.3666 0.842099 17.9427 0.666504 17.5006 0.666504Z" fill="white"/>
</svg>

