<svg width="16" height="16" viewBox="0 0 16 16" fill="none" xmlns="http://www.w3.org/2000/svg">
<path d="M7.16667 13H8.83333V11.3333H7.16667V13ZM8 3C7.11594 3 6.2681 3.35119 5.64298 3.97631C5.01786 4.60143 4.66667 5.44928 4.66667 6.33333H6.33333C6.33333 5.89131 6.50893 5.46738 6.82149 5.15482C7.13405 4.84226 7.55797 4.66667 8 4.66667C8.44203 4.66667 8.86595 4.84226 9.17851 5.15482C9.49107 5.46738 9.66667 5.89131 9.66667 6.33333C9.66667 8 7.16667 7.79167 7.16667 10.5H8.83333C8.83333 8.625 11.3333 8.41667 11.3333 6.33333C11.3333 5.44928 10.9821 4.60143 10.357 3.97631C9.7319 3.35119 8.88406 3 8 3ZM2.16667 0.5H13.8333C14.2754 0.5 14.6993 0.675595 15.0118 0.988155C15.3244 1.30072 15.5 1.72464 15.5 2.16667V13.8333C15.5 14.2754 15.3244 14.6993 15.0118 15.0118C14.6993 15.3244 14.2754 15.5 13.8333 15.5H2.16667C1.72464 15.5 1.30072 15.3244 0.988155 15.0118C0.675595 14.6993 0.5 14.2754 0.5 13.8333V2.16667C0.5 1.72464 0.675595 1.30072 0.988155 0.988155C1.30072 0.675595 1.72464 0.5 2.16667 0.5Z" fill="white"/>
</svg>

