<svg width="40" height="40" viewBox="0 0 40 40" fill="none" xmlns="http://www.w3.org/2000/svg">
<path d="M11.8896 32.8302L9.35981 31.4098C9.26155 31.3557 9.17492 31.2825 9.10541 31.1945C9.03591 31.1064 8.98485 31.0057 8.95502 30.8976C8.9252 30.7895 8.91753 30.6763 8.93207 30.5651C8.94662 30.4539 8.98335 30.3469 9.03998 30.2501L14.1596 21.38L18.1596 23.63L13.02 32.5099C12.9668 32.6065 12.8949 32.6914 12.8085 32.7599C12.7222 32.8284 12.6232 32.879 12.517 32.9088C12.4109 32.9386 12.2998 32.9473 12.1904 32.9337C12.081 32.9201 11.9755 32.885 11.8798 32.8302H11.8896Z" fill="#4D5788"/>
<path d="M17.7701 24.3201L27.11 29.8699C27.2381 29.9463 27.3842 29.9874 27.5333 29.9886C27.6825 29.9897 27.8293 29.9511 27.9586 29.8767C28.0879 29.8024 28.1951 29.6952 28.2692 29.5657C28.3432 29.4362 28.3815 29.2891 28.38 29.1399V7.90995C28.3808 7.76015 28.3415 7.61319 28.2662 7.48368C28.191 7.35417 28.0823 7.24706 27.9518 7.17362C27.8212 7.10018 27.6733 7.06279 27.5236 7.06571C27.3738 7.06863 27.2278 7.11175 27.1002 7.19022L17.7701 12.9002L17.1598 18.51L17.7701 24.3201Z" fill="#F3D652"/>
<path d="M17.1798 18.65L17.7701 24.3199L27.11 29.8698C27.2381 29.9461 27.3842 29.9872 27.5333 29.9884C27.6825 29.9896 27.8293 29.9509 27.9586 29.8766C28.0879 29.8023 28.1951 29.695 28.2692 29.5656C28.3432 29.4361 28.3815 29.2889 28.38 29.1398V18.65H17.1798Z" fill="#EDBE2C"/>
<path d="M10.63 22.2999H7.19006C6.76572 22.2999 6.35877 22.1312 6.05872 21.8312C5.75866 21.5311 5.58997 21.1242 5.58997 20.6998V16.3302C5.58997 15.9059 5.75866 15.4989 6.05872 15.1989C6.35877 14.8988 6.76572 14.7301 7.19006 14.7301H10.63V22.2999Z" fill="#667197"/>
<path d="M5.56995 18.65V20.6998C5.56995 20.9099 5.61161 21.118 5.69202 21.3121C5.77242 21.5063 5.89012 21.6826 6.0387 21.8312C6.18727 21.9798 6.36362 22.0979 6.55774 22.1783C6.75186 22.2588 6.95993 22.2999 7.17004 22.2999H10.63V18.65H5.56995Z" fill="#4D5788"/>
<path d="M17.77 24.3202H12.8701C12.0954 24.2892 11.3626 23.9595 10.8257 23.4003C10.2888 22.841 9.98912 22.0955 9.98974 21.3202V15.64C9.98367 15.2652 10.0552 14.8933 10.1992 14.5472C10.3432 14.2011 10.5569 13.8882 10.8271 13.6283C11.0973 13.3684 11.4181 13.1669 11.7695 13.0365C12.121 12.906 12.4958 12.8493 12.8701 12.87H17.77V24.3202Z" fill="#E06C6C"/>
<path d="M9.98987 18.65V21.3502C9.98925 22.1255 10.2889 22.8705 10.8258 23.4298C11.3627 23.9891 12.0956 24.3192 12.8702 24.3502H17.7701V18.6798L9.98987 18.65Z" fill="#C63C50"/>
<path d="M32.1002 25.4298C31.8752 25.4282 31.6597 25.3384 31.5001 25.1798L29.7902 23.4698C29.7119 23.3918 29.6495 23.299 29.6071 23.1969C29.5647 23.0948 29.5431 22.9857 29.5431 22.8751C29.5431 22.7646 29.5647 22.655 29.6071 22.5529C29.6495 22.4508 29.7119 22.3579 29.7902 22.2799C29.9495 22.1211 30.1648 22.0319 30.3898 22.0319C30.6147 22.0319 30.8305 22.1211 30.9899 22.2799L32.6901 23.9801C32.8079 24.0984 32.8886 24.2485 32.9215 24.4122C32.9545 24.5759 32.9381 24.7458 32.8751 24.9005C32.8122 25.0552 32.7054 25.1877 32.5675 25.2819C32.4296 25.376 32.2672 25.4275 32.1002 25.4298Z" fill="#EDBE2C"/>
<path d="M30.3898 15.2799C30.224 15.2776 30.0628 15.2268 29.9254 15.1339C29.7881 15.041 29.6811 14.91 29.6173 14.757C29.5536 14.6039 29.5359 14.4355 29.5666 14.2726C29.5973 14.1096 29.6751 13.9593 29.7902 13.84L31.5002 12.13C31.5782 12.0517 31.671 11.9893 31.7731 11.9469C31.8752 11.9045 31.9843 11.8829 32.0949 11.8829C32.2054 11.8829 32.315 11.9045 32.4171 11.9469C32.5192 11.9893 32.6121 12.0517 32.6901 12.13C32.8489 12.2893 32.9381 12.5052 32.9381 12.7301C32.9381 12.955 32.8489 13.1709 32.6901 13.3302L30.9899 15.0299C30.9119 15.1098 30.8186 15.173 30.7155 15.2159C30.6124 15.2589 30.5015 15.2807 30.3898 15.2799Z" fill="#F3D652"/>
<path d="M33.63 19.5001H31.2101C31.0018 19.4774 30.8094 19.3787 30.6696 19.2228C30.5297 19.0668 30.4523 18.8644 30.4523 18.6549C30.4523 18.4454 30.5297 18.2435 30.6696 18.0875C30.8094 17.9316 31.0018 17.8329 31.2101 17.8102H33.63C33.8383 17.8329 34.0306 17.9316 34.1705 18.0875C34.3104 18.2435 34.3878 18.4454 34.3878 18.6549C34.3878 18.8644 34.3104 19.0668 34.1705 19.2228C34.0306 19.3787 33.8383 19.4774 33.63 19.5001Z" fill="#F3D652"/>
<path d="M31.1598 19.5001H33.63C33.8537 19.4975 34.0675 19.4068 34.2247 19.2477C34.382 19.0886 34.4699 18.8737 34.4698 18.65H30.3702C30.3702 18.8737 30.4581 19.0886 30.6154 19.2477C30.7726 19.4068 30.9864 19.4975 31.2101 19.5001H31.1598Z" fill="#EDBE2C"/>
</svg>
