<svg width="21" height="27" viewBox="0 0 21 27" fill="none" xmlns="http://www.w3.org/2000/svg">
<path d="M20.4902 22.11C17.6984 24.646 14.0617 26.0509 10.29 26.0509C6.51833 26.0509 2.88169 24.646 0.0898439 22.11C0.0894708 20.1802 0.636431 18.2897 1.6665 16.6578C2.69658 15.026 4.1679 13.7195 5.91016 12.8898C6.45642 13.5141 7.12984 14.0148 7.88525 14.3575C8.64067 14.7003 9.46049 14.8776 10.29 14.8776C11.1196 14.8776 11.9394 14.7003 12.6948 14.3575C13.4502 14.0148 14.1237 13.5141 14.6699 12.8898C16.4122 13.7195 17.884 15.026 18.9141 16.6578C19.9441 18.2897 20.4906 20.1802 20.4902 22.11Z" fill="#326FD1"/>
<path d="M10.3301 0.00013099C11.8259 0.00013099 13.2607 0.594281 14.3184 1.65199C15.3761 2.70969 15.9702 4.14396 15.9702 5.63978C15.9702 8.75978 13.4401 13.0202 10.3301 13.0202C7.22009 13.0202 4.68995 8.75978 4.68995 5.63978C4.68863 4.89875 4.83374 4.16498 5.11671 3.48011C5.39968 2.79524 5.81489 2.17304 6.33888 1.64906C6.86286 1.12507 7.48555 0.70937 8.17042 0.426401C8.85529 0.143431 9.58906 -0.00118639 10.3301 0.00013099Z" fill="#A3DDFF"/>
<path d="M12.6399 22.0099L12.1799 23.3099L11.0999 22.4599L9.87988 16.1999L10.3399 16.0699L12.6399 22.0099Z" fill="#E64732"/>
<path d="M11.8801 24.42L10.1101 26.57L8.3501 24.42L9.5501 16.14H10.6701L11.8801 24.42Z" fill="#FF7059"/>
<path d="M10.6701 16.14H9.55006L9.06006 15.01L9.27006 14.39H10.9601L11.1601 15.01L10.6701 16.14Z" fill="#E64732"/>
</svg>

