<svg width="24" height="26" viewBox="0 0 24 26" fill="none" xmlns="http://www.w3.org/2000/svg">
<path d="M12.7603 0.00012207H2.05029V26.0001H23.48V0.00012207H12.7603Z" fill="#FFBB69"/>
<path d="M23.4698 0H12.7598V26H23.4698V0Z" fill="#EA7A53"/>
<path d="M5.14002 3.09998H0.52002V4.61998H5.14002V3.09998Z" fill="#575F64"/>
<path d="M5.14002 7.67004H0.52002V9.19004H5.14002V7.67004Z" fill="#575F64"/>
<path d="M5.14002 12.24H0.52002V13.76H5.14002V12.24Z" fill="#575F64"/>
<path d="M5.14002 16.8101H0.52002V18.3301H5.14002V16.8101Z" fill="#575F64"/>
<path d="M5.14002 21.38H0.52002V22.9H5.14002V21.38Z" fill="#575F64"/>
<path d="M16.0303 15.5201L14.4102 17.13C14.3404 17.2011 14.2569 17.2575 14.1651 17.296C14.0732 17.3345 13.9746 17.3541 13.875 17.3541C13.7754 17.3541 13.6768 17.3345 13.585 17.296C13.4931 17.2575 13.4102 17.2011 13.3404 17.13L12.7603 16.5602L12.2603 16.0499C12.1892 15.9801 12.1328 15.8972 12.0943 15.8053C12.0557 15.7134 12.0357 15.6144 12.0357 15.5148C12.0357 15.4152 12.0557 15.3166 12.0943 15.2247C12.1328 15.1329 12.1892 15.0499 12.2603 14.9801L13.8701 13.36L12.7603 12.2501L9.57033 9.04993L7.80031 10.8199C7.40439 11.2064 7.09923 11.6761 6.90725 12.1949C6.71526 12.7138 6.64091 13.2689 6.68996 13.8199C6.92856 16.0863 7.93416 18.2031 9.54006 19.8199C10.4678 20.7262 11.5611 21.446 12.7603 21.9401C13.6482 22.3124 14.5838 22.5581 15.5401 22.67C16.0911 22.7191 16.6462 22.6447 17.1651 22.4528C17.6839 22.2608 18.1536 21.9561 18.5401 21.5602L20.3101 19.7902L16.0303 15.5201Z" fill="#F2F2F2"/>
<path d="M18.5703 21.59L20.3403 19.8199L16.0303 15.5201L14.4102 17.13C14.3403 17.2011 14.2569 17.2575 14.165 17.296C14.0732 17.3345 13.9746 17.3541 13.875 17.3541C13.7754 17.3541 13.6768 17.3345 13.585 17.296C13.4931 17.2575 13.4101 17.2011 13.3403 17.13L12.7603 16.5602V21.9698C13.6482 22.3422 14.5838 22.5879 15.54 22.6998C16.0911 22.7489 16.6462 22.675 17.165 22.483C17.6839 22.291 18.1536 21.9859 18.54 21.59H18.5703Z" fill="#E7E7F2"/>
<path d="M13.8701 13.36L12.7603 12.2501V14.4698L13.8701 13.36Z" fill="#E7E7F2"/>
<path d="M12.7603 3.10999H8.18994V7.67981H17.3301V3.10999H12.7603Z" fill="#575F64"/>
<path d="M17.3298 3.09998H12.7598V7.66998H17.3298V3.09998Z" fill="#474F54"/>
</svg>

