<svg width="27" height="26" viewBox="0 0 27 26" fill="none" xmlns="http://www.w3.org/2000/svg">
<path d="M9.84961 9.48438V22.1474H17.8964L18.1269 22.3063L23.459 25.9998V22.1474H26.709V9.48438H9.84961Z" fill="#FFD400"/>
<path d="M26.709 9.48438V22.1474H23.459V26.0003L18.127 22.3063V9.48438H26.709Z" fill="#FDBF00"/>
<path d="M3.75586 20.0632V15.789H0.708984V0H20.3613V15.789H7.84222L3.75586 20.0632Z" fill="#76E2F8"/>
<path d="M10.5605 0H20.3613V15.789H10.5605V0Z" fill="#28C7F7"/>
<path d="M12.8457 7.09961H14.3691V8.68911H12.8457V7.09961Z" fill="#2D0057"/>
<path d="M9.79883 7.09961H11.3223V8.68911H9.79883V7.09961Z" fill="#60508E"/>
<path d="M6.80273 7.09961H8.32617V8.68911H6.80273V7.09961Z" fill="#60508E"/>
<path d="M10.5605 7.09961H11.3223V8.68911H10.5605V7.09961Z" fill="#2D0057"/>
</svg>

