<svg width="26" height="26" viewBox="0 0 26 26" fill="none" xmlns="http://www.w3.org/2000/svg">
<path d="M22.5 13.4698C22.4579 13.4661 22.4173 13.4544 22.3799 13.4347C22.3425 13.415 22.3092 13.3881 22.2822 13.3556C22.2553 13.323 22.235 13.2852 22.2227 13.2448C22.2103 13.2043 22.2058 13.1618 22.21 13.1198C22.21 12.9898 22.21 12.8401 22.21 12.6901C22.1537 11.4615 21.6261 10.3018 20.7368 9.45227C19.8475 8.60272 18.665 8.12854 17.4351 8.12854C16.2052 8.12854 15.0226 8.60272 14.1333 9.45227C13.244 10.3018 12.7164 11.4615 12.6602 12.6901C12.6602 12.8401 12.6602 12.9898 12.6602 13.1198C12.6686 13.2031 12.6442 13.2867 12.5918 13.3522C12.5394 13.4176 12.4636 13.4598 12.3804 13.4698C12.3383 13.474 12.2958 13.47 12.2554 13.4576C12.215 13.4453 12.1771 13.425 12.1445 13.3981C12.112 13.3711 12.0851 13.3378 12.0654 13.3004C12.0458 13.263 12.034 13.2219 12.0303 13.1798C12.0303 13.0198 12.0303 12.8601 12.0303 12.6901C12.0902 11.2968 12.6858 9.98043 13.6929 9.01575C14.6999 8.05107 16.0405 7.51233 17.4351 7.51233C18.8296 7.51233 20.1707 8.05107 21.1777 9.01575C22.1848 9.98043 22.7804 11.2968 22.8403 12.6901C22.8403 12.8601 22.8403 13.0198 22.8403 13.1798C22.833 13.2577 22.7974 13.3305 22.7402 13.3839C22.6831 13.4373 22.6085 13.4677 22.5303 13.4698H22.5Z" fill="#606060"/>
<path d="M9.18018 1.68982V13.7499H8.75H6.20996H5.78028V1.68982C5.77993 1.46813 5.82379 1.24869 5.90967 1.04431C5.99555 0.839928 6.12169 0.654795 6.28028 0.499878C6.5174 0.263548 6.81916 0.102567 7.14746 0.0369874C7.47576 -0.0285925 7.81577 0.0041329 8.12549 0.131226C8.43521 0.258319 8.70058 0.474064 8.88819 0.751343C9.07579 1.02862 9.1774 1.35505 9.18018 1.68982V1.68982Z" fill="#C17B57"/>
<path d="M11.3901 18.1901H1.04004C1.23336 16.9472 1.86483 15.8146 2.82031 14.9967C3.77579 14.1788 4.99224 13.7295 6.25 13.7301H8.79004C9.17686 13.7332 9.56219 13.7767 9.93994 13.86C9.86012 14.0288 9.81948 14.2133 9.82031 14.4V15.0099C9.82031 15.1736 9.85259 15.3358 9.91553 15.4869C9.97847 15.638 10.0708 15.775 10.187 15.8903C10.3032 16.0055 10.4412 16.0966 10.5928 16.1583C10.7444 16.2201 10.9066 16.2514 11.0703 16.2501H10.9902L11.3901 18.1901Z" fill="#E9986B"/>
<path d="M13.9004 25.2501C13.8085 25.3826 13.6857 25.4907 13.543 25.5656C13.4002 25.6404 13.2413 25.6795 13.0801 25.6798H1.95996C1.69474 25.6798 1.44047 25.5749 1.25293 25.3873C1.06539 25.1998 0.959961 24.945 0.959961 24.6798V19.8502H11.7402L12.48 23.4C12.5616 23.7917 12.7309 24.1597 12.9751 24.4767C13.2193 24.7936 13.5322 25.0513 13.8901 25.2301L13.9004 25.2501Z" fill="#FFEBB9"/>
<path d="M11.75 19.8698H0.970215V18.1901H11.3901L11.75 19.8698Z" fill="#F17B89"/>
<path d="M19.75 25.5402H15.1104C14.4965 25.5418 13.9005 25.3316 13.4233 24.9454C12.9461 24.5593 12.6167 24.0207 12.4902 23.42L10.9902 16.2501H23.8701L22.3604 23.42C22.236 24.0199 21.9082 24.5582 21.4326 24.9445C20.9571 25.3307 20.3626 25.5414 19.75 25.5402V25.5402Z" fill="#F5D367"/>
<path d="M11.0704 13.11H23.7901C24.1216 13.11 24.4394 13.2418 24.6739 13.4762C24.9083 13.7107 25.0401 14.0285 25.0401 14.36V14.9699C25.0401 15.1336 25.0078 15.2958 24.9449 15.4469C24.8819 15.598 24.7896 15.735 24.6734 15.8503C24.5572 15.9655 24.4192 16.0566 24.2676 16.1183C24.116 16.1801 23.9538 16.2114 23.7901 16.2101H11.0704C10.9067 16.2114 10.7444 16.1801 10.5928 16.1183C10.4412 16.0566 10.3033 15.9655 10.1871 15.8503C10.0708 15.735 9.97851 15.598 9.91557 15.4469C9.85263 15.2958 9.82035 15.1336 9.82035 14.9699V14.36C9.81902 14.1955 9.85029 14.0323 9.91264 13.88C9.97499 13.7278 10.0668 13.5896 10.1831 13.4733C10.2995 13.357 10.4381 13.2647 10.5904 13.2023C10.7426 13.14 10.9058 13.1087 11.0704 13.11V13.11Z" fill="#FFEBB9"/>
<path d="M3.51025 18.1901H1.04004C1.1784 17.272 1.56223 16.4084 2.15039 15.6901C2.5603 16.5463 3.01411 17.3807 3.51025 18.1901V18.1901Z" fill="#D38A66"/>
<path d="M10.4502 25.6798H1.95996C1.69474 25.6798 1.44047 25.5749 1.25293 25.3873C1.06539 25.1998 0.959961 24.945 0.959961 24.6798V19.8502H4.62012C6.24609 22.0778 8.20954 24.0376 10.4399 25.6598L10.4502 25.6798Z" fill="#EDDAB0"/>
<path d="M4.63037 19.8698H0.970215V18.1901H3.51025C3.86025 18.7601 4.24037 19.3298 4.63037 19.8698Z" fill="#D36E7F"/>
<path d="M4.45036 26.0001C4.40879 26.0001 4.36754 25.9919 4.32927 25.9757C4.29099 25.9595 4.25662 25.9357 4.2277 25.9059C4.19878 25.876 4.17579 25.8407 4.16081 25.8019C4.14583 25.7631 4.13896 25.7214 4.1403 25.6798V22.11C4.1403 22.0264 4.17351 21.9464 4.23259 21.8873C4.29166 21.8283 4.3717 21.795 4.45524 21.795C4.53879 21.795 4.61882 21.8283 4.6779 21.8873C4.73697 21.9464 4.77018 22.0264 4.77018 22.11V25.6798C4.77018 25.7647 4.73645 25.8464 4.67643 25.9064C4.61642 25.9664 4.53523 26.0001 4.45036 26.0001V26.0001Z" fill="#F5D367"/>
<path d="M10.9004 26.0001C10.8155 26.0001 10.7338 25.9664 10.6738 25.9064C10.6138 25.8464 10.5801 25.7647 10.5801 25.6798V23.8898C10.5933 23.8158 10.6324 23.749 10.6899 23.7008C10.7475 23.6526 10.8199 23.6261 10.895 23.6261C10.9701 23.6261 11.043 23.6526 11.1006 23.7008C11.1582 23.749 11.1967 23.8158 11.21 23.8898V25.6798C11.2113 25.7214 11.2044 25.7631 11.1895 25.8019C11.1745 25.8407 11.152 25.876 11.123 25.9059C11.0941 25.9357 11.0593 25.9595 11.021 25.9757C10.9827 25.9919 10.942 26.0001 10.9004 26.0001Z" fill="#F5D367"/>
</svg>

