<svg width="26" height="26" viewBox="0 0 26 26" fill="none" xmlns="http://www.w3.org/2000/svg">
<path d="M14.5601 0.00018944H0.760321C0.660144 -0.0011554 0.560656 0.0176478 0.467841 0.0553652C0.375026 0.0930826 0.290636 0.148586 0.219794 0.219428C0.148952 0.29027 0.0929605 0.37466 0.0552431 0.467475C0.0175258 0.56029 -0.00127747 0.659778 6.73697e-05 0.759955V13.0002C-0.00127747 13.1004 0.0175258 13.1999 0.0552431 13.2927C0.0929605 13.3855 0.148952 13.4694 0.219794 13.5402C0.290636 13.6111 0.375026 13.6671 0.467841 13.7048C0.560656 13.7425 0.660144 13.7613 0.760321 13.76H3.08991V16.05C3.09379 16.2006 3.14145 16.3467 3.22663 16.4709C3.31181 16.5951 3.43084 16.6923 3.56989 16.7502C3.7075 16.8094 3.86021 16.8245 4.0069 16.7941C4.1536 16.7637 4.28748 16.6893 4.3902 16.5803L7.22028 13.76H15.2803V0.759955C15.2817 0.659778 15.2629 0.56029 15.2252 0.467475C15.1874 0.37466 15.1315 0.29027 15.0606 0.219428C14.9898 0.148586 14.9054 0.0930826 14.8126 0.0553652C14.7198 0.0176478 14.6203 -0.0011554 14.5201 0.00018944H14.5601Z" fill="#E1A6FF"/>
<path d="M15.2803 0.759955V13.76H7.66016V0.00018944H14.5601C14.6602 -0.0011554 14.7597 0.0176478 14.8525 0.0553652C14.9454 0.0930826 15.0297 0.148586 15.1006 0.219428C15.1714 0.29027 15.2274 0.37466 15.2651 0.467475C15.3029 0.56029 15.3212 0.659778 15.3198 0.759955H15.2803Z" fill="#B58DFF"/>
<path d="M25.23 7.67004H9.9502C9.85039 7.67004 9.75139 7.68947 9.65918 7.72766C9.56697 7.76585 9.48317 7.82213 9.4126 7.8927C9.34203 7.96327 9.28624 8.04707 9.24805 8.13928C9.20985 8.23149 9.18994 8.33 9.18994 8.42981V22.11C9.18994 22.2098 9.20985 22.3088 9.24805 22.401C9.28624 22.4932 9.34203 22.577 9.4126 22.6476C9.48317 22.7182 9.56697 22.7739 9.65918 22.8121C9.75139 22.8503 9.85039 22.8698 9.9502 22.8698H18.77L21.6001 25.7399C21.7044 25.8498 21.8398 25.9253 21.9883 25.9557C22.1367 25.9861 22.2911 25.9698 22.4302 25.9098C22.5681 25.8515 22.6861 25.7543 22.7695 25.63C22.853 25.5057 22.8981 25.3598 22.8999 25.2101V22.8698H25.23C25.4325 22.8698 25.6269 22.7903 25.771 22.6481C25.9151 22.5058 25.9974 22.3125 26 22.11V8.40002C25.9974 8.19755 25.9151 8.00419 25.771 7.86194C25.6269 7.71969 25.4325 7.63975 25.23 7.63977V7.67004Z" fill="#E6F3FF"/>
<path d="M21.5601 25.7701C21.6644 25.88 21.7998 25.9551 21.9482 25.9855C22.0967 26.0159 22.251 26.0001 22.3901 25.9401C22.5281 25.8817 22.646 25.7841 22.7295 25.6598C22.813 25.5355 22.8581 25.3896 22.8599 25.2399V22.9H25.1899C25.3924 22.9 25.5868 22.8201 25.731 22.6779C25.8751 22.5356 25.9573 22.3422 25.96 22.1398V8.42981C25.9573 8.22733 25.8751 8.03397 25.731 7.89172C25.5868 7.74948 25.3924 7.67003 25.1899 7.67004H17.5601V22.9H18.7603L21.5601 25.7701Z" fill="#CCE6FF"/>
<path d="M12.23 5.38007C12.2313 5.48025 12.2125 5.57974 12.1748 5.67255C12.1371 5.76537 12.0811 5.84976 12.0103 5.9206C11.9394 5.99144 11.8555 6.04743 11.7627 6.08515C11.6699 6.12287 11.5704 6.14118 11.4702 6.13984H3.85986C3.6583 6.13984 3.46528 6.0602 3.32275 5.91767C3.18023 5.77514 3.1001 5.58164 3.1001 5.38007C3.1001 5.17851 3.18023 4.985 3.32275 4.84247C3.46528 4.69995 3.6583 4.61982 3.85986 4.61982H11.4702C11.5704 4.61847 11.6699 4.63728 11.7627 4.67499C11.8555 4.71271 11.9394 4.7687 12.0103 4.83954C12.0811 4.91039 12.1371 4.99478 12.1748 5.08759C12.2125 5.18041 12.2313 5.2799 12.23 5.38007Z" fill="#E6F3FF"/>
<path d="M6.8999 9.19006H3.8999C3.69834 9.19006 3.50532 9.10993 3.36279 8.96741C3.22027 8.82488 3.14014 8.63137 3.14014 8.42981C3.14014 8.22825 3.22027 8.03523 3.36279 7.8927C3.50532 7.75017 3.69834 7.67004 3.8999 7.67004H6.8999C7.10147 7.67004 7.29497 7.75017 7.4375 7.8927C7.58003 8.03523 7.66016 8.22825 7.66016 8.42981C7.66016 8.63137 7.58003 8.82488 7.4375 8.96741C7.29497 9.10993 7.10147 9.19006 6.8999 9.19006Z" fill="#E6F3FF"/>
<path d="M15.2803 19.8503H13C12.8994 19.8516 12.7994 19.8327 12.7061 19.7951C12.6127 19.7575 12.5277 19.7018 12.4561 19.631C12.3844 19.5603 12.3279 19.4759 12.2891 19.383C12.2502 19.2901 12.23 19.1907 12.23 19.09V14.5202C12.23 14.4196 12.2502 14.3196 12.2891 14.2267C12.3279 14.1339 12.3844 14.0499 12.4561 13.9792C12.5277 13.9085 12.6127 13.8527 12.7061 13.8151C12.7994 13.7775 12.8994 13.7586 13 13.76H16.8003V18.76L15.2803 19.8503Z" fill="#5CC3E6"/>
<path d="M22.1401 13.7599H18.3301V12.2399C18.3265 11.9773 18.2544 11.7205 18.1211 11.4943C17.9878 11.268 17.7977 11.0802 17.5698 10.9498C17.3408 10.7991 17.0744 10.7162 16.8003 10.7101H16.04C15.8385 10.7101 15.645 10.7902 15.5024 10.9327C15.3599 11.0753 15.2803 11.2683 15.2803 11.4698V19.8502H22.1401C22.3417 19.8502 22.5347 19.7701 22.6772 19.6276C22.8198 19.485 22.8999 19.2915 22.8999 19.09V14.5201C22.8999 14.4203 22.8805 14.3213 22.8423 14.2291C22.8041 14.1369 22.7478 14.0531 22.6772 13.9825C22.6067 13.912 22.5229 13.8562 22.4307 13.818C22.3385 13.7798 22.2399 13.7599 22.1401 13.7599Z" fill="#FFD9B3"/>
<path d="M22.8999 19.11V14.5402C22.8999 14.3386 22.8198 14.1451 22.6772 14.0026C22.5347 13.86 22.3417 13.7799 22.1401 13.7799H18.3301V12.2599C18.3265 11.9973 18.2544 11.7405 18.1211 11.5143C17.9878 11.2881 17.7977 11.1002 17.5698 10.9698V19.8698H22.1401C22.2399 19.8698 22.3385 19.8503 22.4307 19.8121C22.5229 19.7739 22.6067 19.7182 22.6772 19.6476C22.7478 19.577 22.8041 19.4932 22.8423 19.401C22.8805 19.3088 22.8999 19.2098 22.8999 19.11Z" fill="#FFBB99"/>
<path d="M12.23 5.38007C12.2313 5.48025 12.2125 5.57974 12.1748 5.67255C12.1371 5.76537 12.0811 5.84976 12.0103 5.9206C11.9394 5.99144 11.8555 6.04743 11.7627 6.08515C11.6699 6.12287 11.5704 6.14118 11.4702 6.13984H7.66016V4.61982H11.4702C11.5704 4.61847 11.6699 4.63728 11.7627 4.67499C11.8555 4.71271 11.9394 4.7687 12.0103 4.83954C12.0811 4.91039 12.1371 4.99478 12.1748 5.08759C12.2125 5.18041 12.2313 5.2799 12.23 5.38007Z" fill="#CCE6FF"/>
</svg>

