<svg width="26" height="26" viewBox="0 0 26 26" fill="none" xmlns="http://www.w3.org/2000/svg">
<path d="M13.0002 26.0007C11.1693 26.0013 9.35908 25.6142 7.68851 24.865C6.01794 24.1158 4.52491 23.0214 3.30762 21.6538L8.49288 18.9238L13.0002 26.0007Z" fill="#9EE2F8"/>
<path d="M7.32773 11.9844L7.47652 19.9408C5.91957 20.3678 4.50887 20.9564 3.30738 21.6541C1.17539 19.276 -0.00251697 16.1939 4.0383e-06 13L7.32773 11.9844Z" fill="#78B9EB"/>
<path d="M6.31109 13.0008H3.27625e-06C-0.00226719 9.80725 1.17563 6.72552 3.30738 4.34766L9.00097 5.04437L6.31109 13.0008Z" fill="#9EE2F8"/>
<path d="M7.47675 6.06023C5.9198 5.63316 4.5091 5.04461 3.30762 4.34687C4.52491 2.97927 6.01794 1.88488 7.68851 1.13567C9.35908 0.386465 11.1693 -0.000577982 13.0002 6.47832e-07L7.47675 6.06023Z" fill="#78B9EB"/>
<path d="M13 26.0007C14.8309 26.0013 16.6411 25.6142 18.3117 24.865C19.9823 24.1158 21.4753 23.0214 22.6926 21.6538L17.5073 18.9238L13 26.0007Z" fill="#005FE1"/>
<path d="M18.6722 11.9844L18.5234 19.9408C20.0804 20.3678 21.4911 20.9564 22.6926 21.6541C24.8246 19.276 26.0025 16.1939 26 13L18.6722 11.9844Z" fill="#212CBB"/>
<path d="M19.6889 13.0008H26C26.0023 9.80725 24.8244 6.72552 22.6926 4.34766L16.999 5.04437L19.6889 13.0008Z" fill="#005FE1"/>
<path d="M18.5235 6.06023C20.0804 5.63316 21.4911 5.04461 22.6926 4.34687C21.4753 2.97927 19.9823 1.88488 18.3117 1.13567C16.6411 0.386465 14.8309 -0.000577982 13 6.47832e-07L18.5235 6.06023Z" fill="#212CBB"/>
<path d="M18.5235 19.94L11.9844 18.1875L13 26.0002C15.0343 26.0002 17.2235 23.5789 18.5235 19.94Z" fill="#218ADC"/>
<path d="M13 19.2034C14.8657 19.2018 16.7233 19.4494 18.5235 19.9398C19.2415 17.9303 19.6914 15.5497 19.6914 13L11.9844 11.9844L13 19.2034Z" fill="#005FE1"/>
<path d="M11.9844 5.7793L13 12.9994H19.6889C19.6889 10.4496 19.2415 8.06902 18.5209 6.05961L11.9844 5.7793Z" fill="#218ADC"/>
<path d="M18.5235 6.06023C17.2235 2.42125 15.0343 0 13 0L11.9844 3.39828L13 6.79656C14.8657 6.79816 16.7233 6.55052 18.5235 6.06023Z" fill="#005FE1"/>
<path d="M7.47656 19.9395C8.77656 23.5784 10.9657 25.9997 13 25.9997V19.2031C11.1343 19.2018 9.27677 19.4494 7.47656 19.9395Z" fill="#78B9EB"/>
<path d="M6.31104 13C6.31104 15.5497 6.75842 17.9303 7.47646 19.9398C9.27667 19.4497 11.1342 19.2021 12.9999 19.2034V13H6.31104Z" fill="#218ADC"/>
<path d="M7.47656 6.06023C9.27672 6.55052 11.1343 6.79816 13 6.79656V0C10.9657 0 8.77656 2.42125 7.47656 6.06023Z" fill="#218ADC"/>
<path d="M12.9999 6.79687C11.1342 6.79847 9.27662 6.55084 7.47646 6.06055C6.75842 8.06996 6.31104 10.4506 6.31104 13.0003H12.9999V6.79687Z" fill="#78B9EB"/>
</svg>

