<svg width="28" height="26" viewBox="0 0 28 26" fill="none" xmlns="http://www.w3.org/2000/svg">
<path d="M9.46006 21.1901C9.43863 21.5256 9.48652 21.8619 9.6002 22.1783C9.71388 22.4948 9.89112 22.7847 10.1212 23.0299C10.3513 23.2751 10.629 23.4705 10.9376 23.6041C11.2462 23.7377 11.5789 23.8068 11.9151 23.8068C12.2514 23.8068 12.5841 23.7377 12.8927 23.6041C13.2012 23.4705 13.479 23.2751 13.7091 23.0299C13.9392 22.7847 14.1169 22.4948 14.2306 22.1783C14.3442 21.8619 14.3916 21.5256 14.3702 21.1901H9.46006Z" fill="#FFAB15"/>
<path d="M11.9199 21.1901V23.65C12.5706 23.6474 13.1941 23.387 13.6533 22.9259C14.1125 22.4649 14.3701 21.8408 14.3701 21.1901H11.9199Z" fill="#FF6848"/>
<path d="M19.71 15.5299V7.79016C19.6376 5.77112 18.785 3.85897 17.3311 2.45618C15.8771 1.05339 13.9354 0.269165 11.915 0.269165C9.8947 0.269165 7.95345 1.05339 6.49951 2.45618C5.04557 3.85897 4.19245 5.77112 4.12012 7.79016V14.4L0.330078 18.1901V21.4601H16.4102V19.86L19.71 15.5299Z" fill="#FFDC41"/>
<path d="M11.9199 0.00012207V21.4601H16.4102V19.86L19.6699 15.5299V7.79016C19.6647 5.73264 18.8481 3.76002 17.397 2.30139C15.9458 0.84276 13.9774 0.0159223 11.9199 0.00012207Z" fill="#FFAB15"/>
<path d="M19.7101 12.8H4.12012V14.4H19.7101V12.8Z" fill="#FFAB15"/>
<path d="M19.7099 12.8H11.9199V14.4H19.7099V12.8Z" fill="#FF6848"/>
<path d="M21.63 25.08C24.4522 25.08 26.74 22.7922 26.74 19.97C26.74 17.1478 24.4522 14.86 21.63 14.86C18.8078 14.86 16.52 17.1478 16.52 19.97C16.52 22.7922 18.8078 25.08 21.63 25.08Z" fill="white"/>
<path d="M21.6304 14.86V25.11C22.3198 25.1405 23.0078 25.031 23.6538 24.7882C24.2998 24.5454 24.89 24.1744 25.3887 23.6974C25.8873 23.2203 26.2841 22.6474 26.5552 22.0128C26.8263 21.3782 26.9663 20.6951 26.9663 20.005C26.9663 19.3149 26.8263 18.6318 26.5552 17.9972C26.2841 17.3626 25.8873 16.7897 25.3887 16.3126C24.89 15.8356 24.2998 15.4646 23.6538 15.2218C23.0078 14.979 22.3198 14.8695 21.6304 14.9V14.86Z" fill="#F1F1F3"/>
<path d="M21.6305 26.0002C20.4438 26.0002 19.2837 25.6483 18.297 24.989C17.3103 24.3297 16.5411 23.3925 16.087 22.2961C15.6329 21.1998 15.5142 19.9932 15.7457 18.8293C15.9772 17.6654 16.5487 16.5967 17.3878 15.7575C18.2269 14.9184 19.2957 14.347 20.4596 14.1154C21.6234 13.8839 22.83 14.0026 23.9264 14.4568C25.0227 14.9109 25.9599 15.68 26.6192 16.6667C27.2785 17.6534 27.6305 18.8135 27.6305 20.0002C27.6305 21.5915 26.9979 23.1177 25.8726 24.2429C24.7474 25.3681 23.2218 26.0002 21.6305 26.0002ZM21.6305 15.53C20.7519 15.528 19.8922 15.787 19.1607 16.2736C18.4293 16.7603 17.8587 17.4528 17.5211 18.2639C17.1835 19.075 17.0941 19.9684 17.2642 20.8303C17.4344 21.6922 17.8566 22.4842 18.4771 23.1062C19.0977 23.7281 19.889 24.1518 20.7506 24.3239C21.6121 24.4961 22.5051 24.4087 23.317 24.073C24.1289 23.7372 24.8228 23.1681 25.3111 22.4377C25.7994 21.7073 26.0601 20.8485 26.0601 19.9699C26.0602 18.7941 25.5938 17.6666 24.7633 16.8342C23.9328 16.0018 22.8063 15.5326 21.6305 15.53Z" fill="#888890"/>
<path d="M24.2998 21.3H20.2998V17.3H21.8998V19.7001H24.2998V21.3Z" fill="#606060"/>
<path d="M21.6304 13.9298V15.5299C22.7702 15.584 23.8453 16.0752 24.6328 16.901C25.4203 17.7268 25.8594 18.8239 25.8594 19.965C25.8594 21.1061 25.4203 22.2031 24.6328 23.0289C23.8453 23.8547 22.7702 24.3459 21.6304 24.4V26.0001C23.231 26.0001 24.7657 25.3643 25.8975 24.2325C27.0292 23.1008 27.665 21.5655 27.665 19.965C27.665 18.3644 27.0292 16.8292 25.8975 15.6974C24.7657 14.5656 23.231 13.9298 21.6304 13.9298Z" fill="#606060"/>
</svg>

