<svg width="40" height="40" viewBox="0 0 40 40" fill="none" xmlns="http://www.w3.org/2000/svg">
<path d="M30.2 29.11C27.4081 31.646 23.7717 33.0509 20 33.0509C16.2283 33.0509 12.5919 31.646 9.80005 29.11C9.79968 27.1802 10.3461 25.2897 11.3762 23.6578C12.4063 22.026 13.8779 20.7195 15.6201 19.8898C16.1664 20.5141 16.8396 21.0148 17.595 21.3575C18.3504 21.7003 19.1705 21.8776 20 21.8776C20.8295 21.8776 21.6496 21.7003 22.405 21.3575C23.1604 21.0148 23.8339 20.5141 24.3801 19.8898C26.1224 20.7195 27.5937 22.026 28.6238 23.6578C29.6539 25.2897 30.2003 27.1802 30.2 29.11Z" fill="#1EA6C6"/>
<path d="M20 7.00013C20.741 6.99881 21.475 7.14343 22.1599 7.4264C22.8448 7.70937 23.467 8.12507 23.991 8.64906C24.515 9.17304 24.9304 9.79524 25.2134 10.4801C25.4963 11.165 25.6412 11.8988 25.6399 12.6398C25.6399 15.7598 23.12 20.0202 20 20.0202C16.88 20.0202 14.3601 15.7598 14.3601 12.6398C14.3601 11.144 14.9543 9.70969 16.012 8.65199C17.0697 7.59428 18.5042 7.00013 20 7.00013Z" fill="#FCD09F"/>
</svg>
