<svg width="20" height="27" viewBox="0 0 20 27" fill="none" xmlns="http://www.w3.org/2000/svg">
<path d="M0.0600586 0.00012207V23.6998H3.12012L8.85986 15.5499L9.24023 7.77991L8.85986 0.00012207H0.0600586Z" fill="#F4D844"/>
<path d="M17.6499 0.00012207H8.85986V15.5499L17.6499 3.06018V0.00012207Z" fill="#ECBD2C"/>
<path d="M3.12012 3.10999V26.0499H11.5303L12.2998 14.5802L11.5303 3.10999H3.12012Z" fill="#F9F9F9"/>
<path d="M11.5303 3.10999V26.0499H14.8999L16 21.9401L19.9399 21.0099V3.10999H11.5303Z" fill="#E2DFF4"/>
<path d="M14.8999 26.0001C15.5099 25.3901 19.3299 21.5801 19.8999 21.0001H14.8999V26.0001Z" fill="#BEBCDD"/>
<path d="M11.5303 7.65002H6.18018V6.10999H11.5303L12.2998 6.86975L11.5303 7.65002Z" fill="#4E6BA6"/>
<path d="M11.5303 10.6998H6.18018V9.17004H11.5303L12.2998 9.94006L11.5303 10.6998Z" fill="#A7CAFC"/>
<path d="M11.5303 13.7599H6.18018V12.2301H11.5303L12.2998 13.0001L11.5303 13.7599Z" fill="#A7CAFC"/>
<path d="M11.5303 16.8199H6.18018V15.2902H11.5303L12.2998 16.0602L11.5303 16.8199Z" fill="#A7CAFC"/>
<path d="M16.8799 7.65002H11.5303V6.10999H16.8799V7.65002Z" fill="#28487A"/>
<path d="M16.8799 10.6998H11.5303V9.17004H16.8799V10.6998Z" fill="#8493FB"/>
<path d="M16.8799 13.7599H11.5303V12.2301H16.8799V13.7599Z" fill="#8493FB"/>
<path d="M16.8799 16.8199H11.5303V15.2902H16.8799V16.8199Z" fill="#8493FB"/>
<path d="M11.5303 19.88H6.18018V18.3502H11.5303V19.88Z" fill="#DD4E4E"/>
</svg>

