<svg width="28" height="28" viewBox="0 0 28 28" fill="none" xmlns="http://www.w3.org/2000/svg">
<path d="M26 11.0001H24.5801C24.3416 10.1765 24.0059 9.38395 23.5801 8.63977L24.5801 7.63977C24.7663 7.45241 24.8706 7.19937 24.8706 6.93518C24.8706 6.67099 24.7663 6.41747 24.5801 6.2301L21.7598 3.40002C21.6668 3.3063 21.5564 3.23204 21.4346 3.18127C21.3127 3.13051 21.1818 3.10413 21.0498 3.10413C20.9178 3.10413 20.7874 3.13051 20.6655 3.18127C20.5437 3.23204 20.4328 3.3063 20.3398 3.40002L19.3398 4.40002C18.5992 3.97424 17.8101 3.63852 16.9897 3.40002V1.9801C16.9897 1.71489 16.8848 1.46061 16.6973 1.27307C16.5097 1.08553 16.255 0.980103 15.9897 0.980103H11.9897C11.7245 0.980103 11.4703 1.08553 11.2827 1.27307C11.0952 1.46061 10.9897 1.71489 10.9897 1.9801V3.40002C10.1662 3.6385 9.37407 3.97419 8.62988 4.40002L7.62988 3.40002C7.44252 3.21377 7.18899 3.10901 6.9248 3.10901C6.66062 3.10901 6.40758 3.21377 6.22021 3.40002L3.39014 6.2301C3.20389 6.41747 3.09912 6.67099 3.09912 6.93518C3.09912 7.19937 3.20389 7.45241 3.39014 7.63977L4.39014 8.63977C3.96431 9.38395 3.62861 10.1765 3.39014 11.0001H1.97021C1.705 11.0001 1.45023 11.1056 1.2627 11.2931C1.07516 11.4806 0.970215 11.7349 0.970215 12.0001V16.0001C0.970215 16.2653 1.07516 16.5196 1.2627 16.7072C1.45023 16.8947 1.705 17.0001 1.97021 17.0001H3.39014C3.62864 17.8205 3.96435 18.6095 4.39014 19.3502L3.39014 20.3502C3.29641 20.4432 3.22167 20.5536 3.1709 20.6754C3.12013 20.7973 3.09424 20.9282 3.09424 21.0602C3.09424 21.1922 3.12013 21.3226 3.1709 21.4445C3.22167 21.5663 3.29641 21.6772 3.39014 21.7701L6.22021 24.59C6.40758 24.7762 6.66062 24.881 6.9248 24.881C7.18899 24.881 7.44252 24.7762 7.62988 24.59L8.62988 23.59C9.37407 24.0158 10.1662 24.3515 10.9897 24.59V26.0099C10.9897 26.2751 11.0952 26.5294 11.2827 26.7169C11.4703 26.9045 11.7245 27.0099 11.9897 27.0099H15.9897C16.255 27.0099 16.5097 26.9045 16.6973 26.7169C16.8848 26.5294 16.9897 26.2751 16.9897 26.0099V24.59C17.8101 24.3515 18.5992 24.0158 19.3398 23.59L20.3398 24.59C20.4328 24.6837 20.5437 24.7579 20.6655 24.8087C20.7874 24.8595 20.9178 24.8859 21.0498 24.8859C21.1818 24.8859 21.3127 24.8595 21.4346 24.8087C21.5564 24.7579 21.6668 24.6837 21.7598 24.59L24.5801 21.7701C24.6738 21.6772 24.7481 21.5663 24.7988 21.4445C24.8496 21.3226 24.876 21.1922 24.876 21.0602C24.876 20.9282 24.8496 20.7973 24.7988 20.6754C24.7481 20.5536 24.6738 20.4432 24.5801 20.3502L23.5801 19.3502C24.0059 18.6095 24.3416 17.8205 24.5801 17.0001H26C26.2652 17.0001 26.5195 16.8947 26.707 16.7072C26.8946 16.5196 27 16.2653 27 16.0001V12.0001C27 11.7349 26.8946 11.4806 26.707 11.2931C26.5195 11.1056 26.2652 11.0001 26 11.0001ZM14 20.0001C12.8133 20.0001 11.6532 19.6482 10.6665 18.9889C9.67981 18.3296 8.91067 17.3924 8.45654 16.296C8.00242 15.1997 7.88372 13.9931 8.11523 12.8292C8.34675 11.6653 8.91821 10.5966 9.75732 9.75745C10.5964 8.91833 11.6657 8.34687 12.8296 8.11536C13.9935 7.88385 15.1995 8.00254 16.2959 8.45667C17.3923 8.91079 18.3295 9.67993 18.9888 10.6666C19.6481 11.6533 20 12.8134 20 14.0001C20 15.5914 19.3679 17.1176 18.2427 18.2428C17.1175 19.368 15.5913 20.0001 14 20.0001Z" fill="#99CCFF"/>
<path d="M17 26.0001V24.5802C17.8204 24.3417 18.6094 24.006 19.3501 23.5802L20.3501 24.5802C20.4431 24.6739 20.5534 24.7482 20.6753 24.799C20.7972 24.8497 20.928 24.8756 21.0601 24.8756C21.1921 24.8756 21.3225 24.8497 21.4443 24.799C21.5662 24.7482 21.6771 24.6739 21.77 24.5802L24.5898 21.7599C24.6836 21.6669 24.7583 21.5566 24.8091 21.4347C24.8599 21.3128 24.8857 21.1819 24.8857 21.0499C24.8857 20.9179 24.8599 20.7875 24.8091 20.6656C24.7583 20.5438 24.6836 20.4329 24.5898 20.34L23.5898 19.34C24.0156 18.5993 24.3513 17.8103 24.5898 16.9899H26.0098C26.275 16.9899 26.5297 16.8844 26.7173 16.6969C26.9048 16.5094 27.0098 16.2551 27.0098 15.9899V11.9899C27.0098 11.7247 26.9048 11.4704 26.7173 11.2828C26.5297 11.0953 26.275 10.9899 26.0098 10.9899H24.5898C24.3514 10.1663 24.0157 9.37419 23.5898 8.63L24.5898 7.63C24.7761 7.44264 24.8809 7.18911 24.8809 6.92493C24.8809 6.66074 24.7761 6.40721 24.5898 6.21985L21.77 3.38977C21.6771 3.29604 21.5662 3.22179 21.4443 3.17102C21.3225 3.12025 21.1921 3.09436 21.0601 3.09436C20.928 3.09436 20.7972 3.12025 20.6753 3.17102C20.5534 3.22179 20.4431 3.29604 20.3501 3.38977L19.3501 4.38977C18.6094 3.96398 17.8204 3.62827 17 3.38977V1.96985C17 1.70463 16.8946 1.45035 16.707 1.26282C16.5195 1.07528 16.2652 0.969849 16 0.969849H14V7.96985C15.5913 7.96985 17.1175 8.60195 18.2427 9.72717C19.3679 10.8524 20 12.3785 20 13.9698C20 15.5611 19.3679 17.0873 18.2427 18.2125C17.1175 19.3377 15.5913 19.9698 14 19.9698V26.9698H16C16.2652 26.9698 16.5195 26.8644 16.707 26.6769C16.8946 26.4893 17 26.2351 17 25.9698V26.0001Z" fill="#80AAFF"/>
<path d="M14.0002 7.00012C12.6157 7.00012 11.2622 7.41064 10.111 8.17981C8.9599 8.94898 8.06273 10.0423 7.53292 11.3214C7.00311 12.6005 6.86438 14.008 7.13448 15.3658C7.40458 16.7237 8.07153 17.9709 9.0505 18.9498C10.0295 19.9288 11.2766 20.5953 12.6345 20.8654C13.9923 21.1355 15.3998 20.9967 16.6789 20.4669C17.958 19.9371 19.0513 19.0399 19.8205 17.8888C20.5897 16.7376 21.0002 15.3846 21.0002 14.0001C21.0002 12.1436 20.2627 10.3632 18.9499 9.05042C17.6372 7.73766 15.8567 7.00012 14.0002 7.00012ZM14.0002 19.0001C13.0113 19.0001 12.0446 18.7068 11.2224 18.1573C10.4001 17.6079 9.75901 16.8268 9.38057 15.9132C9.00214 14.9996 8.90347 13.9944 9.0964 13.0245C9.28932 12.0546 9.7653 11.1637 10.4646 10.4645C11.1638 9.76521 12.0547 9.28875 13.0246 9.09583C13.9945 8.9029 15.0001 9.00205 15.9138 9.38049C16.8274 9.75893 17.608 10.4 18.1574 11.2223C18.7068 12.0445 19.0002 13.0112 19.0002 14.0001C19.0002 15.3262 18.4735 16.5976 17.5358 17.5353C16.5982 18.473 15.3263 19.0001 14.0002 19.0001Z" fill="#80AAFF"/>
<path d="M21 14.0001C21 12.1436 20.2625 10.3632 18.9497 9.05042C17.637 7.73766 15.8565 7.00012 14 7.00012V9.00012C15.3261 9.00012 16.598 9.5268 17.5356 10.4645C18.4733 11.4022 19 12.674 19 14.0001C19 15.3262 18.4733 16.5976 17.5356 17.5353C16.598 18.473 15.3261 19.0001 14 19.0001V21.0001C15.8565 21.0001 17.637 20.2626 18.9497 18.9498C20.2625 17.6371 21 15.8566 21 14.0001Z" fill="#6680FF"/>
</svg>

