<svg width="21" height="19" viewBox="0 0 21 19" fill="none" xmlns="http://www.w3.org/2000/svg">
<path d="M9.59194 0.968664C9.94936 0.193792 11.0506 0.193793 11.4081 0.968665L13.5101 5.52594C13.6558 5.84174 13.9551 6.05918 14.3004 6.10013L19.2842 6.69104C20.1316 6.79151 20.4719 7.8389 19.8454 8.41827L16.1608 11.8257C15.9055 12.0619 15.7911 12.4137 15.8589 12.7548L16.837 17.6773C17.0033 18.5142 16.1124 19.1616 15.3677 18.7448L10.9884 16.2934C10.685 16.1235 10.315 16.1235 10.0116 16.2934L5.63225 18.7448C4.88764 19.1616 3.99668 18.5142 4.16299 17.6773L5.14108 12.7548C5.20886 12.4137 5.09454 12.0619 4.8392 11.8257L1.15456 8.41827C0.528056 7.8389 0.868373 6.79151 1.71577 6.69104L6.69956 6.10013C7.04493 6.05918 7.34421 5.84174 7.48988 5.52593L9.59194 0.968664Z" fill="#FAA628"/>
</svg>

