<svg width="26" height="26" viewBox="0 0 26 26" fill="none" xmlns="http://www.w3.org/2000/svg">
<path d="M26 12.9492H24.4765C24.4722 9.92021 23.2671 7.01652 21.1253 4.87471C18.9834 2.73289 16.0798 1.52773 13.0508 1.52343V0C16.4851 0 19.7788 1.36429 22.2072 3.79273C24.6357 6.22117 26 9.51485 26 12.9492Z" fill="#9ED0FF"/>
<path d="M22.9531 12.9492H21.4297C21.4303 11.8487 21.214 10.7589 20.7931 9.74202C20.3722 8.72518 19.7551 7.80126 18.9769 7.02309C18.1987 6.24492 17.2748 5.62776 16.258 5.20689C15.2411 4.78602 14.1513 4.56971 13.0508 4.57031V3.04688C15.6744 3.05544 18.1881 4.10147 20.0433 5.95666C21.8985 7.81185 22.9445 10.3256 22.9531 12.9492Z" fill="#9ED0FF"/>
<path d="M19.9062 12.9492H18.3828C18.3761 11.5371 17.8122 10.1848 16.8137 9.18627C15.8152 8.18777 14.4629 7.62386 13.0508 7.61718V6.09375C14.8681 6.09644 16.6103 6.81957 17.8954 8.10463C19.1804 9.3897 19.9035 11.1318 19.9062 12.9492Z" fill="#9ED0FF"/>
<path d="M17.8951 8.10547C18.5348 8.73926 19.0421 9.49398 19.3873 10.3257C19.7325 11.1574 19.9089 12.0495 19.906 12.95H18.3826C18.384 12.25 18.246 11.5568 17.9766 10.9107C17.7072 10.2646 17.3118 9.67871 16.8135 9.18711L17.8951 8.10547Z" fill="#73BCFF"/>
<path d="M20.0435 5.95703C20.9668 6.87225 21.6994 7.96153 22.1988 9.16181C22.6983 10.3621 22.9547 11.6495 22.9532 12.9496H21.4298C21.4282 10.7275 20.5463 8.59664 18.9771 7.02343L20.0435 5.95703Z" fill="#73BCFF"/>
<path d="M26 12.9488H24.4765C24.478 11.4484 24.1826 9.9626 23.6074 8.57687C23.0322 7.19115 22.1885 5.9329 21.125 4.87461L22.2066 3.79297C23.4104 4.99434 24.3651 6.42154 25.0161 7.99271C25.667 9.56389 26.0014 11.2481 26 12.9488Z" fill="#73BCFF"/>
<path d="M23.4609 26.0008H20.4064C17.6839 26.0047 14.989 25.4562 12.4846 24.3885C7.59473 22.3008 3.69981 18.4057 1.61232 13.5158C0.544791 11.0117 -0.00370147 8.31707 1.87989e-05 5.59492V2.53993C0.000183226 2.15424 0.0882116 1.77366 0.257422 1.42707C0.426632 1.08048 0.672578 0.776994 0.976589 0.539649C1.2806 0.302304 1.63469 0.137336 2.01197 0.057268C2.38926 -0.0227999 2.77983 -0.0158636 3.15403 0.0775502L3.16876 0.0816127L9.14062 1.70661V8.91753L5.76469 10.1241C7.25613 14.8777 11.1241 18.7457 15.8778 20.2372L17.0843 16.8602H24.2952L25.9202 22.8468C26.0136 23.2208 26.0206 23.6111 25.9407 23.9881C25.8608 24.3652 25.6961 24.7191 25.4591 25.0231C25.2221 25.327 24.919 25.573 24.5728 25.7424C24.2266 25.9118 23.8463 26.0002 23.4609 26.0008Z" fill="#73BCFF"/>
<path d="M12.4849 24.3877C14.9893 25.4554 17.6842 26.0039 20.4067 26H23.4607C23.8464 25.9998 24.227 25.9118 24.5736 25.7426C24.9201 25.5734 25.2236 25.3274 25.461 25.0234C25.6983 24.7194 25.8633 24.3653 25.9434 23.988C26.0234 23.6108 26.0165 23.2202 25.9231 22.846L24.2966 16.8594H17.0856L15.8791 20.2353C13.501 19.4898 11.3453 18.1497 9.59745 16.4023L5.99707 20.0027C7.85731 21.8683 10.0602 23.3572 12.4849 24.3877Z" fill="#1B9DED"/>
</svg>

