<svg width="22" height="26" viewBox="0 0 22 26" fill="none" xmlns="http://www.w3.org/2000/svg">
<path d="M20.79 26.0001H4.47998C4.27748 26.0001 4.08357 25.9202 3.93945 25.778C3.79533 25.6357 3.71308 25.4423 3.71045 25.2399V4.02014C3.71308 3.81766 3.79533 3.6243 3.93945 3.48206C4.08357 3.33981 4.27748 3.25987 4.47998 3.25989H20.79C20.9925 3.25987 21.1869 3.33981 21.3311 3.48206C21.4752 3.6243 21.5574 3.81766 21.5601 4.02014V25.2399C21.5574 25.4423 21.4752 25.6357 21.3311 25.778C21.1869 25.9202 20.9925 26.0001 20.79 26.0001Z" fill="#D1E7E8"/>
<path d="M21.5601 25.2399V4.02014C21.5574 3.81766 21.4752 3.6243 21.3311 3.48206C21.1869 3.33981 20.9925 3.25987 20.79 3.25989H9.37012V26.0001H20.79C20.9925 26.0001 21.1869 25.9202 21.3311 25.778C21.4752 25.6357 21.5574 25.4423 21.5601 25.2399Z" fill="#B0D7E1"/>
<path d="M17.5303 22.7301H1.21045C1.11064 22.7301 1.01164 22.7102 0.919434 22.672C0.827226 22.6338 0.743424 22.578 0.672852 22.5074C0.602279 22.4369 0.546494 22.3531 0.508301 22.2609C0.470107 22.1687 0.450195 22.0697 0.450195 21.9698V0.759888C0.450195 0.660083 0.470107 0.561568 0.508301 0.46936C0.546494 0.377153 0.602279 0.293351 0.672852 0.222778C0.743424 0.152206 0.827226 0.0959328 0.919434 0.0577393C1.01164 0.0195457 1.11064 0.00012207 1.21045 0.00012207H17.5303C17.6301 0.00012207 17.7291 0.0195457 17.8213 0.0577393C17.9135 0.0959328 17.9968 0.152206 18.0674 0.222778C18.138 0.293351 18.1942 0.377153 18.2324 0.46936C18.2706 0.561568 18.29 0.660083 18.29 0.759888V21.9698C18.29 22.0697 18.2706 22.1687 18.2324 22.2609C18.1942 22.3531 18.138 22.4369 18.0674 22.5074C17.9968 22.578 17.9135 22.6338 17.8213 22.672C17.7291 22.7102 17.6301 22.7301 17.5303 22.7301Z" fill="#F2F8F4"/>
<path d="M18.29 21.9698V0.759888C18.29 0.660083 18.2706 0.561568 18.2324 0.46936C18.1942 0.377153 18.138 0.293351 18.0674 0.222778C17.9968 0.152206 17.9135 0.0959328 17.8213 0.0577393C17.7291 0.0195457 17.6301 0.00012207 17.5303 0.00012207H9.37012V22.7301H17.5303C17.7318 22.7301 17.9249 22.65 18.0674 22.5074C18.2099 22.3649 18.29 22.1714 18.29 21.9698Z" fill="#D1E7E8"/>
<path d="M5.29005 6.00989C5.08858 6.0081 4.89537 5.92967 4.75001 5.79016L3.94044 4.96985C3.79722 4.82796 3.71579 4.63532 3.71485 4.43372C3.71391 4.23211 3.79318 4.03836 3.93507 3.89514C4.07696 3.75192 4.27009 3.67098 4.47169 3.67004C4.67329 3.66911 4.86705 3.74788 5.01026 3.88977L5.29005 4.17004L6.38038 3.0802C6.45105 3.00885 6.53476 2.95186 6.62745 2.91321C6.72014 2.87455 6.81999 2.85461 6.92042 2.85461C7.02084 2.85461 7.12021 2.87455 7.2129 2.91321C7.30559 2.95186 7.38979 3.00885 7.46046 3.0802C7.53151 3.15001 7.58795 3.23297 7.62647 3.32483C7.665 3.41669 7.68458 3.51526 7.68458 3.61487C7.68458 3.71448 7.665 3.81305 7.62647 3.90491C7.58795 3.99676 7.53151 4.08022 7.46046 4.15002L5.83009 5.79016C5.68589 5.93145 5.49193 6.01018 5.29005 6.00989Z" fill="#50CCA8"/>
<path d="M5.28991 19.4698C5.08844 19.4681 4.89523 19.3896 4.74987 19.2501L3.9403 18.4298C3.81978 18.284 3.75753 18.0987 3.76647 17.9098C3.77541 17.7209 3.8549 17.5421 3.98864 17.4083C4.12238 17.2746 4.30117 17.1956 4.4901 17.1866C4.67903 17.1777 4.86435 17.2395 5.01012 17.36L5.28991 17.63L6.38024 16.5402C6.52346 16.3969 6.71774 16.3165 6.92028 16.3165C7.12282 16.3165 7.3171 16.3969 7.46032 16.5402C7.60353 16.6834 7.68395 16.8777 7.68395 17.0802C7.68395 17.2827 7.60353 17.4765 7.46032 17.6198L5.82995 19.2501C5.68575 19.3914 5.49179 19.4701 5.28991 19.4698Z" fill="#50CCA8"/>
<path d="M5.28991 14.9801C5.08844 14.9783 4.89523 14.8994 4.74987 14.7599L3.9403 13.9401C3.81978 13.7943 3.75753 13.609 3.76647 13.42C3.77541 13.2311 3.8549 13.0518 3.98864 12.9181C4.12238 12.7843 4.30117 12.7054 4.4901 12.6964C4.67903 12.6875 4.86435 12.7492 5.01012 12.8698L5.28991 13.1398L6.38024 12.0499C6.52346 11.9067 6.71774 11.8263 6.92028 11.8263C7.12282 11.8263 7.3171 11.9067 7.46032 12.0499C7.60353 12.1931 7.68395 12.3874 7.68395 12.59C7.68395 12.7925 7.60353 12.9868 7.46032 13.13L5.82995 14.7599C5.68575 14.9012 5.49179 14.9804 5.28991 14.9801Z" fill="#50CCA8"/>
<path d="M5.29004 10.5001C5.18928 10.4995 5.08978 10.4786 4.99707 10.4391C4.90437 10.3996 4.82027 10.3424 4.75 10.2701L3.94043 9.46008C3.86908 9.38942 3.81209 9.30521 3.77344 9.21252C3.73478 9.11984 3.71484 9.02047 3.71484 8.92004C3.71484 8.81962 3.73478 8.72025 3.77344 8.62756C3.81209 8.53488 3.86908 8.45067 3.94043 8.38C4.01024 8.30895 4.0932 8.25251 4.18506 8.21399C4.27691 8.17546 4.37549 8.1554 4.4751 8.1554C4.57471 8.1554 4.67328 8.17546 4.76514 8.21399C4.85699 8.25251 4.94045 8.30895 5.01025 8.38L5.29004 8.65979L6.38037 7.56018C6.52561 7.42084 6.71913 7.3429 6.92041 7.3429C7.12169 7.3429 7.31521 7.42084 7.46045 7.56018C7.5318 7.63085 7.5883 7.71456 7.62695 7.80725C7.66561 7.89994 7.68555 7.9998 7.68555 8.10022C7.68555 8.20064 7.66561 8.30001 7.62695 8.3927C7.5883 8.48539 7.5318 8.5691 7.46045 8.63977L5.83008 10.2701C5.76051 10.3433 5.67685 10.4015 5.58398 10.441C5.49112 10.4806 5.39098 10.5006 5.29004 10.5001Z" fill="#50CCA8"/>
<path d="M14.27 5.60022H10.1904C9.98887 5.60022 9.79536 5.52009 9.65283 5.37756C9.5103 5.23504 9.43018 5.04153 9.43018 4.83997C9.43018 4.6384 9.5103 4.4449 9.65283 4.30237C9.79536 4.15984 9.98887 4.0802 10.1904 4.0802H14.27C14.4716 4.0802 14.6651 4.15984 14.8076 4.30237C14.9501 4.4449 15.0303 4.6384 15.0303 4.83997C15.0303 5.04153 14.9501 5.23504 14.8076 5.37756C14.6651 5.52009 14.4716 5.60022 14.27 5.60022Z" fill="#0F1E32"/>
<path d="M14.27 10.11H10.1904C9.98887 10.11 9.79536 10.0299 9.65283 9.88733C9.5103 9.7448 9.43018 9.55178 9.43018 9.35022C9.43018 9.14866 9.5103 8.95515 9.65283 8.81262C9.79536 8.67009 9.98887 8.58997 10.1904 8.58997H14.27C14.4716 8.58997 14.6651 8.67009 14.8076 8.81262C14.9501 8.95515 15.0303 9.14866 15.0303 9.35022C15.0303 9.55178 14.9501 9.7448 14.8076 9.88733C14.6651 10.0299 14.4716 10.11 14.27 10.11Z" fill="#0F1E32"/>
<path d="M14.27 14.5802H10.1904C9.98795 14.5776 9.79459 14.4953 9.65234 14.3512C9.5101 14.2071 9.43016 14.0127 9.43018 13.8102C9.43018 13.7104 9.45009 13.6114 9.48828 13.5192C9.52647 13.427 9.58226 13.3432 9.65283 13.2726C9.7234 13.202 9.80721 13.1462 9.89941 13.108C9.99162 13.0698 10.0906 13.0499 10.1904 13.0499H14.27C14.4716 13.0499 14.6651 13.1301 14.8076 13.2726C14.9501 13.4151 15.0303 13.6086 15.0303 13.8102C15.0303 14.0127 14.9504 14.2071 14.8081 14.3512C14.6659 14.4953 14.4725 14.5776 14.27 14.5802Z" fill="#0F1E32"/>
<path d="M14.27 19.11H10.1904C9.98887 19.11 9.79536 19.0299 9.65283 18.8873C9.5103 18.7448 9.43018 18.5518 9.43018 18.3502C9.43018 18.1487 9.5103 17.9551 9.65283 17.8126C9.79536 17.6701 9.98887 17.59 10.1904 17.59H14.27C14.4716 17.59 14.6651 17.6701 14.8076 17.8126C14.9501 17.9551 15.0303 18.1487 15.0303 18.3502C15.0303 18.5518 14.9501 18.7448 14.8076 18.8873C14.6651 19.0299 14.4716 19.11 14.27 19.11Z" fill="#0F1E32"/>
</svg>

