<svg width="14" height="26" viewBox="0 0 14 26" fill="none" xmlns="http://www.w3.org/2000/svg">
<path d="M10.4902 23.5602V26.0001H3.49023V23.5602H5.76025V13.2701H8.2002V23.5602H10.4902Z" fill="#A4D8FF"/>
<path d="M10.4902 23.5602V26.0001H7.02002V13.2701H8.24023V23.5602H10.4902Z" fill="#C7E4FD"/>
<path d="M13.5801 8.48017C12.6601 12.6202 10.06 15.6003 7 15.6003C3.6 15.6003 0.780176 11.9398 0.180176 7.11982C0.180176 7.11982 6.92 6.03023 7 6.04023C7.7 6.11023 11.4401 6.58017 13.5801 8.48017Z" fill="#B1B1FC"/>
<path d="M13.5801 8.4801C12.6601 12.6201 10.06 15.6002 7 15.6002V6.04016C7.7 6.11016 11.4401 6.5801 13.5801 8.4801Z" fill="#5785EA"/>
<path d="M13.93 5.19983C13.9338 6.30268 13.8163 7.40288 13.5799 8.4801C11.5799 8.3501 11.45 7.10022 9.22001 7.10022C8.43436 7.07787 7.66016 7.29366 6.99979 7.71985C6.27122 8.23158 5.4003 8.501 4.51004 8.48987C2.29004 8.48987 2.15997 7.25975 0.179966 7.11975C0.0992244 6.48295 0.059026 5.84173 0.0598491 5.19983C0.0488345 3.42417 0.36424 1.66189 0.990025 0.00012207H12.99C13.6158 1.66189 13.9307 3.42417 13.9197 5.19983H13.93Z" fill="#A9D2F7"/>
<path d="M13.9302 5.19983C13.934 6.30268 13.8165 7.40288 13.5801 8.4801C11.5801 8.3501 11.4502 7.10022 9.22021 7.10022C8.43457 7.07787 7.66037 7.29366 7 7.71985V0.00012207H13C13.6258 1.66189 13.9412 3.42417 13.9302 5.19983Z" fill="#C7E4FD"/>
</svg>

