<svg width="18" height="21" viewBox="0 0 18 21" fill="none" xmlns="http://www.w3.org/2000/svg">
<path d="M12.75 20.16L10 17.16L11.16 16L12.75 17.59L16.34 14L17.5 15.41L12.75 20.16ZM2 20C1.46957 20 0.960859 19.7893 0.585786 19.4142C0.210714 19.0391 0 18.5304 0 18V2C0 0.89 0.89 0 2 0H3V7L5.5 5.5L8 7V0H14C14.5304 0 15.0391 0.210714 15.4142 0.585786C15.7893 0.960859 16 1.46957 16 2V11.34C14.8432 10.9323 13.5894 10.8886 12.407 11.2148C11.2247 11.541 10.1706 12.2214 9.38644 13.1645C8.60232 14.1076 8.1258 15.2682 8.02096 16.4903C7.91611 17.7123 8.18798 18.9371 8.8 20H2Z" fill="#555479"/>
</svg>

