<svg width="20" height="21" viewBox="0 0 20 21" fill="none" xmlns="http://www.w3.org/2000/svg">
<path d="M10 19.0004C8.14348 19.0004 6.36301 18.2629 5.05025 16.9501C3.7375 15.6373 3 13.8569 3 12.0004C3 10.1438 3.7375 8.36336 5.05025 7.0506C6.36301 5.73785 8.14348 5.00035 10 5.00035C11.8565 5.00035 13.637 5.73785 14.9497 7.0506C16.2625 8.36336 17 10.1438 17 12.0004C17 13.8569 16.2625 15.6373 14.9497 16.9501C13.637 18.2629 11.8565 19.0004 10 19.0004ZM10 3.00035C7.61305 3.00035 5.32387 3.94856 3.63604 5.63639C1.94821 7.32422 1 9.6134 1 12.0004C1 14.3873 1.94821 16.6765 3.63604 18.3643C5.32387 20.0521 7.61305 21.0004 10 21.0004C12.3869 21.0004 14.6761 20.0521 16.364 18.3643C18.0518 16.6765 19 14.3873 19 12.0004C19 9.6134 18.0518 7.32422 16.364 5.63639C14.6761 3.94856 12.3869 3.00035 10 3.00035ZM10.5 7.00035H9V13.0004L13.75 15.8504L14.5 14.6204L10.5 12.2504V7.00035ZM5.88 2.39035L4.6 0.860352L0 4.71035L1.29 6.24035L5.88 2.39035ZM20 4.72035L15.4 0.860352L14.11 2.39035L18.71 6.25035L20 4.72035Z" fill="#555479"/>
</svg>

